; NON-PLATED HOLES START AT T1
; THROUGH (PLATED) HOLES START AT T100
M48
INCH
T1C0.086614
T100C0.039000
T101C0.051181
T102C0.040000
T103C0.022500
T104C0.100000
T105C0.038972
T106C0.022510
T107C0.035000
%
T1
X001097Y027119
X016097Y001119
X021097Y027119
T100
X010097Y022119
X009096Y022119
T101
X001735Y003529
X013459Y003529
X006459Y008312
X006459Y003529
X004097Y009119
X001735Y008312
X013459Y008312
X008735Y008312
X011097Y009119
X008735Y003529
T102
X018097Y002119
X020097Y016119
X018097Y004119
X021197Y016119
T103
X001096Y014619
X012096Y012119
X007097Y020119
X008097Y020119
X010096Y012119
X010094Y020119
X009097Y012119
X011096Y020119
X011096Y012119
X013096Y012119
X007097Y012119
X004095Y020119
X005095Y020119
X004095Y012119
X001096Y017619
X012096Y020119
X006096Y012119
X006096Y020119
X005095Y012119
X001096Y016619
X001096Y013619
X008097Y012119
X009097Y020119
X001096Y018619
X001096Y015619
T104
X018897Y009019
X020097Y007119
X017697Y007119
T105
X012097Y022119
X011097Y022119
T106
X013096Y020119
T107
X017097Y013119
X020097Y019119
X017097Y018119
X017097Y019119
X015097Y003119
X019097Y018119
X020097Y021119
X018097Y023119
X018097Y018119
X019097Y011119
X017097Y014119
X017097Y011119
X018097Y019119
X017097Y012119
X019097Y014119
X016097Y003119
X021097Y019119
X019097Y012119
X018097Y014119
X021097Y021119
X019097Y013119
X017097Y023119
T00
M30
