G04 MADE WITH FRITZING*
G04 WWW.FRITZING.ORG*
G04 DOUBLE SIDED*
G04 HOLES PLATED*
G04 CONTOUR ON CENTER OF CONTOUR VECTOR*
%ASAXBY*%
%FSLAX23Y23*%
%MOIN*%
%OFA0B0*%
%SFA1.0B1.0*%
%ADD10C,0.096614*%
%ADD11C,0.090000*%
%ADD12C,0.150000*%
%ADD13C,0.085000*%
%ADD14C,0.069990*%
%ADD15C,0.070000*%
%ADD16C,0.084000*%
%ADD17C,0.081000*%
%ADD18C,0.080972*%
%ADD19R,0.089986X0.090000*%
%ADD20R,0.085000X0.085000*%
%ADD21R,0.001000X0.001000*%
%LNMASK0*%
G90*
G70*
G54D10*
X2110Y2712D03*
X110Y2712D03*
X1610Y112D03*
G54D11*
X1810Y412D03*
X1810Y212D03*
G54D12*
X1770Y712D03*
X2010Y712D03*
X1890Y902D03*
G54D13*
X1910Y1812D03*
X1910Y1412D03*
G54D14*
X1310Y2012D03*
G54D15*
X1210Y2012D03*
X1110Y2012D03*
X1009Y2012D03*
X910Y2012D03*
X810Y2012D03*
X710Y2012D03*
X610Y2012D03*
X510Y2012D03*
X410Y2012D03*
X1310Y1212D03*
X1210Y1212D03*
X1110Y1212D03*
X1010Y1212D03*
X910Y1212D03*
X810Y1212D03*
X710Y1212D03*
X610Y1212D03*
X510Y1212D03*
X410Y1212D03*
X110Y1862D03*
X110Y1762D03*
X110Y1662D03*
X110Y1562D03*
X110Y1462D03*
X110Y1362D03*
G54D13*
X1510Y312D03*
X1610Y312D03*
X2010Y1912D03*
X2110Y1912D03*
X2010Y2112D03*
X2110Y2112D03*
G54D16*
X2010Y1612D03*
X2120Y1612D03*
G54D17*
X910Y2212D03*
X1010Y2212D03*
G54D18*
X1110Y2212D03*
X1210Y2212D03*
G54D13*
X1710Y2312D03*
X1710Y1912D03*
X1810Y2312D03*
X1810Y1912D03*
X1910Y1312D03*
X1910Y1212D03*
X1910Y1112D03*
X1710Y1312D03*
X1710Y1212D03*
X1710Y1112D03*
X1810Y1412D03*
X1810Y1812D03*
X1710Y1412D03*
X1710Y1812D03*
G54D19*
X1810Y412D03*
G54D20*
X1510Y312D03*
X2010Y1912D03*
X2010Y2112D03*
G54D21*
X1968Y1654D02*
X2051Y1654D01*
X1968Y1653D02*
X2051Y1653D01*
X1968Y1652D02*
X2051Y1652D01*
X1968Y1651D02*
X2051Y1651D01*
X1968Y1650D02*
X2051Y1650D01*
X1968Y1649D02*
X2051Y1649D01*
X1968Y1648D02*
X2051Y1648D01*
X1968Y1647D02*
X2051Y1647D01*
X1968Y1646D02*
X2051Y1646D01*
X1968Y1645D02*
X2051Y1645D01*
X1968Y1644D02*
X2051Y1644D01*
X1968Y1643D02*
X2051Y1643D01*
X1968Y1642D02*
X2051Y1642D01*
X1968Y1641D02*
X2051Y1641D01*
X1968Y1640D02*
X2051Y1640D01*
X1968Y1639D02*
X2051Y1639D01*
X1968Y1638D02*
X2051Y1638D01*
X1968Y1637D02*
X2051Y1637D01*
X1968Y1636D02*
X2051Y1636D01*
X1968Y1635D02*
X2051Y1635D01*
X1968Y1634D02*
X2051Y1634D01*
X1968Y1633D02*
X2051Y1633D01*
X1968Y1632D02*
X2051Y1632D01*
X1968Y1631D02*
X2051Y1631D01*
X1968Y1630D02*
X2051Y1630D01*
X1968Y1629D02*
X2051Y1629D01*
X1968Y1628D02*
X2051Y1628D01*
X1968Y1627D02*
X2003Y1627D01*
X2015Y1627D02*
X2051Y1627D01*
X1968Y1626D02*
X2001Y1626D01*
X2017Y1626D02*
X2051Y1626D01*
X1968Y1625D02*
X2000Y1625D01*
X2018Y1625D02*
X2051Y1625D01*
X1968Y1624D02*
X1998Y1624D01*
X2020Y1624D02*
X2051Y1624D01*
X1968Y1623D02*
X1997Y1623D01*
X2021Y1623D02*
X2051Y1623D01*
X1968Y1622D02*
X1997Y1622D01*
X2022Y1622D02*
X2051Y1622D01*
X1968Y1621D02*
X1996Y1621D01*
X2022Y1621D02*
X2051Y1621D01*
X1968Y1620D02*
X1995Y1620D01*
X2023Y1620D02*
X2051Y1620D01*
X1968Y1619D02*
X1995Y1619D01*
X2023Y1619D02*
X2051Y1619D01*
X1968Y1618D02*
X1994Y1618D01*
X2024Y1618D02*
X2051Y1618D01*
X1968Y1617D02*
X1994Y1617D01*
X2024Y1617D02*
X2051Y1617D01*
X1968Y1616D02*
X1994Y1616D01*
X2024Y1616D02*
X2051Y1616D01*
X1968Y1615D02*
X1994Y1615D01*
X2024Y1615D02*
X2051Y1615D01*
X1968Y1614D02*
X1994Y1614D01*
X2024Y1614D02*
X2051Y1614D01*
X1968Y1613D02*
X1994Y1613D01*
X2025Y1613D02*
X2051Y1613D01*
X1968Y1612D02*
X1994Y1612D01*
X2024Y1612D02*
X2051Y1612D01*
X1968Y1611D02*
X1994Y1611D01*
X2024Y1611D02*
X2051Y1611D01*
X1968Y1610D02*
X1994Y1610D01*
X2024Y1610D02*
X2051Y1610D01*
X1968Y1609D02*
X1994Y1609D01*
X2024Y1609D02*
X2051Y1609D01*
X1968Y1608D02*
X1994Y1608D01*
X2024Y1608D02*
X2051Y1608D01*
X1968Y1607D02*
X1995Y1607D01*
X2023Y1607D02*
X2051Y1607D01*
X1968Y1606D02*
X1995Y1606D01*
X2023Y1606D02*
X2051Y1606D01*
X1968Y1605D02*
X1996Y1605D01*
X2022Y1605D02*
X2051Y1605D01*
X1968Y1604D02*
X1997Y1604D01*
X2022Y1604D02*
X2051Y1604D01*
X1968Y1603D02*
X1997Y1603D01*
X2021Y1603D02*
X2051Y1603D01*
X1968Y1602D02*
X1998Y1602D01*
X2020Y1602D02*
X2051Y1602D01*
X1968Y1601D02*
X2000Y1601D01*
X2019Y1601D02*
X2051Y1601D01*
X1968Y1600D02*
X2001Y1600D01*
X2017Y1600D02*
X2051Y1600D01*
X1968Y1599D02*
X2003Y1599D01*
X2015Y1599D02*
X2051Y1599D01*
X1968Y1598D02*
X2051Y1598D01*
X1968Y1597D02*
X2051Y1597D01*
X1968Y1596D02*
X2051Y1596D01*
X1968Y1595D02*
X2051Y1595D01*
X1968Y1594D02*
X2051Y1594D01*
X1968Y1593D02*
X2051Y1593D01*
X1968Y1592D02*
X2051Y1592D01*
X1968Y1591D02*
X2051Y1591D01*
X1968Y1590D02*
X2051Y1590D01*
X1968Y1589D02*
X2051Y1589D01*
X1968Y1588D02*
X2051Y1588D01*
X1968Y1587D02*
X2051Y1587D01*
X1968Y1586D02*
X2051Y1586D01*
X1968Y1585D02*
X2051Y1585D01*
X1968Y1584D02*
X2051Y1584D01*
X1968Y1583D02*
X2051Y1583D01*
X1968Y1582D02*
X2051Y1582D01*
X1968Y1581D02*
X2051Y1581D01*
X1968Y1580D02*
X2051Y1580D01*
X1968Y1579D02*
X2051Y1579D01*
X1968Y1578D02*
X2051Y1578D01*
X1968Y1577D02*
X2051Y1577D01*
X1968Y1576D02*
X2051Y1576D01*
X1968Y1575D02*
X2051Y1575D01*
X1968Y1574D02*
X2051Y1574D01*
X1968Y1573D02*
X2051Y1573D01*
X1968Y1572D02*
X2051Y1572D01*
X1968Y1571D02*
X2050Y1571D01*
X407Y983D02*
X411Y983D01*
X1107Y983D02*
X1111Y983D01*
X398Y982D02*
X420Y982D01*
X1098Y982D02*
X1120Y982D01*
X393Y981D02*
X425Y981D01*
X1093Y981D02*
X1125Y981D01*
X389Y980D02*
X429Y980D01*
X1089Y980D02*
X1129Y980D01*
X386Y979D02*
X432Y979D01*
X1086Y979D02*
X1132Y979D01*
X383Y978D02*
X435Y978D01*
X1083Y978D02*
X1135Y978D01*
X381Y977D02*
X437Y977D01*
X1081Y977D02*
X1137Y977D01*
X379Y976D02*
X439Y976D01*
X1079Y976D02*
X1139Y976D01*
X377Y975D02*
X441Y975D01*
X1077Y975D02*
X1141Y975D01*
X375Y974D02*
X443Y974D01*
X1075Y974D02*
X1143Y974D01*
X374Y973D02*
X445Y973D01*
X1074Y973D02*
X1145Y973D01*
X372Y972D02*
X446Y972D01*
X1072Y972D02*
X1146Y972D01*
X371Y971D02*
X448Y971D01*
X1070Y971D02*
X1148Y971D01*
X369Y970D02*
X449Y970D01*
X1069Y970D02*
X1149Y970D01*
X368Y969D02*
X451Y969D01*
X1068Y969D02*
X1150Y969D01*
X366Y968D02*
X452Y968D01*
X1066Y968D02*
X1152Y968D01*
X365Y967D02*
X453Y967D01*
X1065Y967D02*
X1153Y967D01*
X364Y966D02*
X454Y966D01*
X1064Y966D02*
X1154Y966D01*
X363Y965D02*
X456Y965D01*
X1063Y965D02*
X1155Y965D01*
X362Y964D02*
X457Y964D01*
X1062Y964D02*
X1157Y964D01*
X361Y963D02*
X458Y963D01*
X1061Y963D02*
X1158Y963D01*
X360Y962D02*
X459Y962D01*
X1060Y962D02*
X1159Y962D01*
X359Y961D02*
X460Y961D01*
X1059Y961D02*
X1160Y961D01*
X358Y960D02*
X461Y960D01*
X1058Y960D02*
X1160Y960D01*
X357Y959D02*
X461Y959D01*
X1057Y959D02*
X1161Y959D01*
X356Y958D02*
X462Y958D01*
X1056Y958D02*
X1162Y958D01*
X355Y957D02*
X463Y957D01*
X1055Y957D02*
X1163Y957D01*
X355Y956D02*
X464Y956D01*
X1054Y956D02*
X1164Y956D01*
X354Y955D02*
X465Y955D01*
X1054Y955D02*
X1164Y955D01*
X353Y954D02*
X465Y954D01*
X1053Y954D02*
X1165Y954D01*
X352Y953D02*
X466Y953D01*
X1052Y953D02*
X1166Y953D01*
X352Y952D02*
X467Y952D01*
X1052Y952D02*
X1167Y952D01*
X351Y951D02*
X467Y951D01*
X1051Y951D02*
X1167Y951D01*
X350Y950D02*
X468Y950D01*
X1050Y950D02*
X1168Y950D01*
X350Y949D02*
X469Y949D01*
X1050Y949D02*
X1169Y949D01*
X349Y948D02*
X469Y948D01*
X1049Y948D02*
X1169Y948D01*
X349Y947D02*
X470Y947D01*
X1048Y947D02*
X1170Y947D01*
X348Y946D02*
X470Y946D01*
X1048Y946D02*
X1170Y946D01*
X347Y945D02*
X471Y945D01*
X1047Y945D02*
X1171Y945D01*
X347Y944D02*
X471Y944D01*
X1047Y944D02*
X1171Y944D01*
X346Y943D02*
X472Y943D01*
X1046Y943D02*
X1172Y943D01*
X346Y942D02*
X472Y942D01*
X1046Y942D02*
X1172Y942D01*
X346Y941D02*
X473Y941D01*
X1045Y941D02*
X1173Y941D01*
X345Y940D02*
X473Y940D01*
X1045Y940D02*
X1173Y940D01*
X345Y939D02*
X474Y939D01*
X1045Y939D02*
X1174Y939D01*
X344Y938D02*
X474Y938D01*
X1044Y938D02*
X1174Y938D01*
X344Y937D02*
X474Y937D01*
X1044Y937D02*
X1174Y937D01*
X344Y936D02*
X475Y936D01*
X1044Y936D02*
X1175Y936D01*
X343Y935D02*
X475Y935D01*
X1043Y935D02*
X1175Y935D01*
X343Y934D02*
X475Y934D01*
X1043Y934D02*
X1175Y934D01*
X343Y933D02*
X476Y933D01*
X1043Y933D02*
X1176Y933D01*
X342Y932D02*
X476Y932D01*
X1042Y932D02*
X1176Y932D01*
X342Y931D02*
X476Y931D01*
X1042Y931D02*
X1176Y931D01*
X342Y930D02*
X476Y930D01*
X1042Y930D02*
X1176Y930D01*
X342Y929D02*
X477Y929D01*
X1042Y929D02*
X1177Y929D01*
X341Y928D02*
X477Y928D01*
X1041Y928D02*
X1177Y928D01*
X341Y927D02*
X477Y927D01*
X1041Y927D02*
X1177Y927D01*
X341Y926D02*
X477Y926D01*
X1041Y926D02*
X1177Y926D01*
X341Y925D02*
X477Y925D01*
X1041Y925D02*
X1177Y925D01*
X341Y924D02*
X478Y924D01*
X1041Y924D02*
X1178Y924D01*
X341Y923D02*
X478Y923D01*
X1041Y923D02*
X1178Y923D01*
X340Y922D02*
X478Y922D01*
X1040Y922D02*
X1178Y922D01*
X340Y921D02*
X478Y921D01*
X1040Y921D02*
X1178Y921D01*
X340Y920D02*
X478Y920D01*
X1040Y920D02*
X1178Y920D01*
X340Y919D02*
X478Y919D01*
X1040Y919D02*
X1178Y919D01*
X340Y918D02*
X478Y918D01*
X1040Y918D02*
X1178Y918D01*
X340Y917D02*
X478Y917D01*
X1040Y917D02*
X1178Y917D01*
X340Y916D02*
X478Y916D01*
X1040Y916D02*
X1178Y916D01*
X340Y915D02*
X479Y915D01*
X1040Y915D02*
X1178Y915D01*
X340Y914D02*
X479Y914D01*
X1040Y914D02*
X1179Y914D01*
X340Y913D02*
X479Y913D01*
X1040Y913D02*
X1179Y913D01*
X340Y912D02*
X479Y912D01*
X1040Y912D02*
X1178Y912D01*
X340Y911D02*
X478Y911D01*
X1040Y911D02*
X1178Y911D01*
X340Y910D02*
X478Y910D01*
X1040Y910D02*
X1178Y910D01*
X340Y909D02*
X478Y909D01*
X1040Y909D02*
X1178Y909D01*
X340Y908D02*
X478Y908D01*
X1040Y908D02*
X1178Y908D01*
X340Y907D02*
X478Y907D01*
X1040Y907D02*
X1178Y907D01*
X340Y906D02*
X478Y906D01*
X1040Y906D02*
X1178Y906D01*
X340Y905D02*
X478Y905D01*
X1040Y905D02*
X1178Y905D01*
X340Y904D02*
X478Y904D01*
X1040Y904D02*
X1178Y904D01*
X341Y903D02*
X478Y903D01*
X1041Y903D02*
X1178Y903D01*
X166Y902D02*
X180Y902D01*
X341Y902D02*
X478Y902D01*
X639Y902D02*
X652Y902D01*
X866Y902D02*
X880Y902D01*
X1041Y902D02*
X1177Y902D01*
X1339Y902D02*
X1352Y902D01*
X160Y901D02*
X186Y901D01*
X341Y901D02*
X477Y901D01*
X632Y901D02*
X658Y901D01*
X860Y901D02*
X886Y901D01*
X1041Y901D02*
X1177Y901D01*
X1332Y901D02*
X1358Y901D01*
X156Y900D02*
X190Y900D01*
X341Y900D02*
X477Y900D01*
X628Y900D02*
X663Y900D01*
X856Y900D02*
X890Y900D01*
X1041Y900D02*
X1177Y900D01*
X1328Y900D02*
X1362Y900D01*
X152Y899D02*
X194Y899D01*
X341Y899D02*
X477Y899D01*
X624Y899D02*
X666Y899D01*
X852Y899D02*
X894Y899D01*
X1041Y899D02*
X1177Y899D01*
X1324Y899D02*
X1366Y899D01*
X149Y898D02*
X197Y898D01*
X342Y898D02*
X477Y898D01*
X622Y898D02*
X669Y898D01*
X849Y898D02*
X897Y898D01*
X1042Y898D02*
X1177Y898D01*
X1322Y898D02*
X1369Y898D01*
X146Y897D02*
X200Y897D01*
X342Y897D02*
X477Y897D01*
X619Y897D02*
X672Y897D01*
X846Y897D02*
X900Y897D01*
X1042Y897D02*
X1176Y897D01*
X1319Y897D02*
X1372Y897D01*
X144Y896D02*
X202Y896D01*
X342Y896D02*
X476Y896D01*
X617Y896D02*
X674Y896D01*
X844Y896D02*
X902Y896D01*
X1042Y896D02*
X1176Y896D01*
X1317Y896D02*
X1374Y896D01*
X142Y895D02*
X204Y895D01*
X342Y895D02*
X476Y895D01*
X615Y895D02*
X676Y895D01*
X842Y895D02*
X904Y895D01*
X1042Y895D02*
X1176Y895D01*
X1315Y895D02*
X1376Y895D01*
X140Y894D02*
X206Y894D01*
X343Y894D02*
X476Y894D01*
X613Y894D02*
X678Y894D01*
X840Y894D02*
X906Y894D01*
X1043Y894D02*
X1176Y894D01*
X1313Y894D02*
X1378Y894D01*
X139Y893D02*
X207Y893D01*
X343Y893D02*
X476Y893D01*
X611Y893D02*
X680Y893D01*
X839Y893D02*
X907Y893D01*
X1043Y893D02*
X1175Y893D01*
X1311Y893D02*
X1380Y893D01*
X137Y892D02*
X209Y892D01*
X343Y892D02*
X475Y892D01*
X609Y892D02*
X681Y892D01*
X837Y892D02*
X909Y892D01*
X1043Y892D02*
X1175Y892D01*
X1309Y892D02*
X1381Y892D01*
X135Y891D02*
X211Y891D01*
X343Y891D02*
X475Y891D01*
X608Y891D02*
X683Y891D01*
X835Y891D02*
X911Y891D01*
X1043Y891D02*
X1175Y891D01*
X1308Y891D02*
X1383Y891D01*
X134Y890D02*
X212Y890D01*
X344Y890D02*
X475Y890D01*
X606Y890D02*
X684Y890D01*
X834Y890D02*
X912Y890D01*
X1044Y890D02*
X1174Y890D01*
X1306Y890D02*
X1384Y890D01*
X133Y889D02*
X213Y889D01*
X344Y889D02*
X474Y889D01*
X605Y889D02*
X686Y889D01*
X832Y889D02*
X913Y889D01*
X1044Y889D02*
X1174Y889D01*
X1305Y889D02*
X1386Y889D01*
X131Y888D02*
X215Y888D01*
X345Y888D02*
X474Y888D01*
X604Y888D02*
X687Y888D01*
X831Y888D02*
X915Y888D01*
X1044Y888D02*
X1174Y888D01*
X1303Y888D02*
X1387Y888D01*
X130Y887D02*
X216Y887D01*
X345Y887D02*
X473Y887D01*
X602Y887D02*
X689Y887D01*
X830Y887D02*
X916Y887D01*
X1045Y887D02*
X1173Y887D01*
X1302Y887D02*
X1388Y887D01*
X129Y886D02*
X217Y886D01*
X345Y886D02*
X473Y886D01*
X601Y886D02*
X690Y886D01*
X828Y886D02*
X917Y886D01*
X1045Y886D02*
X1173Y886D01*
X1301Y886D02*
X1390Y886D01*
X127Y885D02*
X219Y885D01*
X346Y885D02*
X473Y885D01*
X600Y885D02*
X691Y885D01*
X827Y885D02*
X919Y885D01*
X1046Y885D02*
X1173Y885D01*
X1300Y885D02*
X1391Y885D01*
X126Y884D02*
X220Y884D01*
X346Y884D02*
X472Y884D01*
X599Y884D02*
X692Y884D01*
X826Y884D02*
X920Y884D01*
X1046Y884D02*
X1172Y884D01*
X1299Y884D02*
X1392Y884D01*
X125Y883D02*
X221Y883D01*
X347Y883D02*
X472Y883D01*
X598Y883D02*
X693Y883D01*
X825Y883D02*
X921Y883D01*
X1047Y883D02*
X1172Y883D01*
X1298Y883D02*
X1393Y883D01*
X124Y882D02*
X222Y882D01*
X347Y882D02*
X471Y882D01*
X596Y882D02*
X694Y882D01*
X824Y882D02*
X922Y882D01*
X1047Y882D02*
X1171Y882D01*
X1296Y882D02*
X1394Y882D01*
X123Y881D02*
X223Y881D01*
X348Y881D02*
X471Y881D01*
X596Y881D02*
X695Y881D01*
X823Y881D02*
X923Y881D01*
X1048Y881D02*
X1171Y881D01*
X1295Y881D02*
X1395Y881D01*
X122Y880D02*
X224Y880D01*
X348Y880D02*
X470Y880D01*
X595Y880D02*
X696Y880D01*
X822Y880D02*
X924Y880D01*
X1048Y880D02*
X1170Y880D01*
X1295Y880D02*
X1396Y880D01*
X121Y879D02*
X225Y879D01*
X349Y879D02*
X470Y879D01*
X594Y879D02*
X697Y879D01*
X821Y879D02*
X925Y879D01*
X1049Y879D02*
X1169Y879D01*
X1294Y879D02*
X1397Y879D01*
X120Y878D02*
X225Y878D01*
X349Y878D02*
X469Y878D01*
X593Y878D02*
X698Y878D01*
X820Y878D02*
X925Y878D01*
X1049Y878D02*
X1169Y878D01*
X1293Y878D02*
X1398Y878D01*
X120Y877D02*
X226Y877D01*
X350Y877D02*
X468Y877D01*
X592Y877D02*
X699Y877D01*
X820Y877D02*
X926Y877D01*
X1050Y877D02*
X1168Y877D01*
X1292Y877D02*
X1399Y877D01*
X119Y876D02*
X227Y876D01*
X351Y876D02*
X468Y876D01*
X591Y876D02*
X699Y876D01*
X819Y876D02*
X927Y876D01*
X1051Y876D02*
X1168Y876D01*
X1291Y876D02*
X1399Y876D01*
X118Y875D02*
X228Y875D01*
X351Y875D02*
X467Y875D01*
X590Y875D02*
X700Y875D01*
X818Y875D02*
X928Y875D01*
X1051Y875D02*
X1167Y875D01*
X1290Y875D02*
X1400Y875D01*
X117Y874D02*
X229Y874D01*
X352Y874D02*
X466Y874D01*
X590Y874D02*
X701Y874D01*
X817Y874D02*
X929Y874D01*
X1052Y874D02*
X1166Y874D01*
X1290Y874D02*
X1401Y874D01*
X117Y873D02*
X229Y873D01*
X353Y873D02*
X466Y873D01*
X589Y873D02*
X702Y873D01*
X817Y873D02*
X929Y873D01*
X1053Y873D02*
X1166Y873D01*
X1289Y873D02*
X1402Y873D01*
X116Y872D02*
X230Y872D01*
X353Y872D02*
X465Y872D01*
X588Y872D02*
X702Y872D01*
X816Y872D02*
X930Y872D01*
X1053Y872D02*
X1165Y872D01*
X1288Y872D02*
X1402Y872D01*
X115Y871D02*
X231Y871D01*
X354Y871D02*
X464Y871D01*
X588Y871D02*
X703Y871D01*
X815Y871D02*
X931Y871D01*
X1054Y871D02*
X1164Y871D01*
X1288Y871D02*
X1403Y871D01*
X115Y870D02*
X231Y870D01*
X355Y870D02*
X464Y870D01*
X587Y870D02*
X704Y870D01*
X815Y870D02*
X931Y870D01*
X1055Y870D02*
X1163Y870D01*
X1287Y870D02*
X1404Y870D01*
X114Y869D02*
X232Y869D01*
X356Y869D02*
X463Y869D01*
X586Y869D02*
X704Y869D01*
X814Y869D02*
X932Y869D01*
X1056Y869D02*
X1163Y869D01*
X1286Y869D02*
X1404Y869D01*
X113Y868D02*
X233Y868D01*
X356Y868D02*
X462Y868D01*
X586Y868D02*
X705Y868D01*
X813Y868D02*
X933Y868D01*
X1056Y868D02*
X1162Y868D01*
X1286Y868D02*
X1405Y868D01*
X113Y867D02*
X233Y867D01*
X357Y867D02*
X461Y867D01*
X585Y867D02*
X706Y867D01*
X813Y867D02*
X933Y867D01*
X1057Y867D02*
X1161Y867D01*
X1285Y867D02*
X1406Y867D01*
X112Y866D02*
X234Y866D01*
X358Y866D02*
X460Y866D01*
X585Y866D02*
X706Y866D01*
X812Y866D02*
X934Y866D01*
X1058Y866D02*
X1160Y866D01*
X1284Y866D02*
X1406Y866D01*
X112Y865D02*
X234Y865D01*
X359Y865D02*
X459Y865D01*
X584Y865D02*
X707Y865D01*
X812Y865D02*
X934Y865D01*
X1059Y865D02*
X1159Y865D01*
X1284Y865D02*
X1407Y865D01*
X111Y864D02*
X235Y864D01*
X360Y864D02*
X458Y864D01*
X584Y864D02*
X707Y864D01*
X811Y864D02*
X935Y864D01*
X1060Y864D02*
X1158Y864D01*
X1283Y864D02*
X1407Y864D01*
X111Y863D02*
X235Y863D01*
X361Y863D02*
X457Y863D01*
X583Y863D02*
X708Y863D01*
X811Y863D02*
X935Y863D01*
X1061Y863D02*
X1157Y863D01*
X1283Y863D02*
X1408Y863D01*
X110Y862D02*
X236Y862D01*
X362Y862D02*
X456Y862D01*
X583Y862D02*
X708Y862D01*
X810Y862D02*
X936Y862D01*
X1062Y862D02*
X1156Y862D01*
X1282Y862D02*
X1408Y862D01*
X110Y861D02*
X236Y861D01*
X363Y861D02*
X455Y861D01*
X582Y861D02*
X709Y861D01*
X810Y861D02*
X936Y861D01*
X1063Y861D02*
X1155Y861D01*
X1282Y861D02*
X1409Y861D01*
X109Y860D02*
X237Y860D01*
X364Y860D02*
X454Y860D01*
X582Y860D02*
X709Y860D01*
X809Y860D02*
X937Y860D01*
X1064Y860D02*
X1154Y860D01*
X1281Y860D02*
X1409Y860D01*
X109Y859D02*
X237Y859D01*
X366Y859D02*
X453Y859D01*
X581Y859D02*
X710Y859D01*
X809Y859D02*
X937Y859D01*
X1066Y859D02*
X1153Y859D01*
X1281Y859D02*
X1410Y859D01*
X108Y858D02*
X238Y858D01*
X367Y858D02*
X451Y858D01*
X581Y858D02*
X710Y858D01*
X808Y858D02*
X938Y858D01*
X1067Y858D02*
X1151Y858D01*
X1281Y858D02*
X1410Y858D01*
X108Y857D02*
X238Y857D01*
X368Y857D02*
X450Y857D01*
X580Y857D02*
X710Y857D01*
X808Y857D02*
X938Y857D01*
X1068Y857D02*
X1150Y857D01*
X1280Y857D02*
X1410Y857D01*
X108Y856D02*
X238Y856D01*
X370Y856D02*
X449Y856D01*
X580Y856D02*
X711Y856D01*
X808Y856D02*
X938Y856D01*
X1070Y856D02*
X1149Y856D01*
X1280Y856D02*
X1411Y856D01*
X107Y855D02*
X239Y855D01*
X371Y855D02*
X447Y855D01*
X580Y855D02*
X711Y855D01*
X807Y855D02*
X939Y855D01*
X1071Y855D02*
X1147Y855D01*
X1280Y855D02*
X1411Y855D01*
X107Y854D02*
X239Y854D01*
X373Y854D02*
X446Y854D01*
X579Y854D02*
X711Y854D01*
X807Y854D02*
X939Y854D01*
X1073Y854D02*
X1146Y854D01*
X1279Y854D02*
X1411Y854D01*
X107Y853D02*
X239Y853D01*
X374Y853D02*
X444Y853D01*
X579Y853D02*
X712Y853D01*
X807Y853D02*
X939Y853D01*
X1074Y853D02*
X1144Y853D01*
X1279Y853D02*
X1412Y853D01*
X106Y852D02*
X240Y852D01*
X376Y852D02*
X442Y852D01*
X579Y852D02*
X712Y852D01*
X806Y852D02*
X939Y852D01*
X1076Y852D02*
X1142Y852D01*
X1279Y852D02*
X1412Y852D01*
X106Y851D02*
X240Y851D01*
X378Y851D02*
X440Y851D01*
X579Y851D02*
X712Y851D01*
X806Y851D02*
X940Y851D01*
X1078Y851D02*
X1140Y851D01*
X1279Y851D02*
X1412Y851D01*
X106Y850D02*
X240Y850D01*
X380Y850D02*
X438Y850D01*
X578Y850D02*
X712Y850D01*
X806Y850D02*
X940Y850D01*
X1080Y850D02*
X1138Y850D01*
X1278Y850D02*
X1412Y850D01*
X106Y849D02*
X240Y849D01*
X382Y849D02*
X436Y849D01*
X578Y849D02*
X713Y849D01*
X806Y849D02*
X940Y849D01*
X1082Y849D02*
X1136Y849D01*
X1278Y849D02*
X1413Y849D01*
X105Y848D02*
X241Y848D01*
X385Y848D02*
X434Y848D01*
X578Y848D02*
X713Y848D01*
X805Y848D02*
X940Y848D01*
X1085Y848D02*
X1134Y848D01*
X1278Y848D02*
X1413Y848D01*
X105Y847D02*
X241Y847D01*
X387Y847D02*
X431Y847D01*
X578Y847D02*
X713Y847D01*
X805Y847D02*
X941Y847D01*
X1087Y847D02*
X1131Y847D01*
X1278Y847D02*
X1413Y847D01*
X105Y846D02*
X241Y846D01*
X391Y846D02*
X427Y846D01*
X577Y846D02*
X713Y846D01*
X805Y846D02*
X941Y846D01*
X1091Y846D02*
X1127Y846D01*
X1277Y846D02*
X1413Y846D01*
X105Y845D02*
X241Y845D01*
X395Y845D02*
X423Y845D01*
X577Y845D02*
X714Y845D01*
X805Y845D02*
X941Y845D01*
X1095Y845D02*
X1123Y845D01*
X1277Y845D02*
X1413Y845D01*
X105Y844D02*
X241Y844D01*
X401Y844D02*
X418Y844D01*
X577Y844D02*
X714Y844D01*
X805Y844D02*
X941Y844D01*
X1101Y844D02*
X1118Y844D01*
X1277Y844D02*
X1414Y844D01*
X105Y843D02*
X241Y843D01*
X577Y843D02*
X714Y843D01*
X804Y843D02*
X941Y843D01*
X1277Y843D02*
X1414Y843D01*
X104Y842D02*
X242Y842D01*
X577Y842D02*
X714Y842D01*
X804Y842D02*
X942Y842D01*
X1277Y842D02*
X1414Y842D01*
X104Y841D02*
X242Y841D01*
X577Y841D02*
X714Y841D01*
X804Y841D02*
X942Y841D01*
X1277Y841D02*
X1414Y841D01*
X104Y840D02*
X242Y840D01*
X576Y840D02*
X714Y840D01*
X804Y840D02*
X942Y840D01*
X1276Y840D02*
X1414Y840D01*
X104Y839D02*
X242Y839D01*
X576Y839D02*
X714Y839D01*
X804Y839D02*
X942Y839D01*
X1276Y839D02*
X1414Y839D01*
X104Y838D02*
X242Y838D01*
X576Y838D02*
X714Y838D01*
X804Y838D02*
X942Y838D01*
X1276Y838D02*
X1414Y838D01*
X104Y837D02*
X242Y837D01*
X576Y837D02*
X715Y837D01*
X804Y837D02*
X942Y837D01*
X1276Y837D02*
X1414Y837D01*
X104Y836D02*
X242Y836D01*
X576Y836D02*
X715Y836D01*
X804Y836D02*
X942Y836D01*
X1276Y836D02*
X1415Y836D01*
X104Y835D02*
X242Y835D01*
X576Y835D02*
X715Y835D01*
X804Y835D02*
X942Y835D01*
X1276Y835D02*
X1415Y835D01*
X104Y834D02*
X242Y834D01*
X576Y834D02*
X715Y834D01*
X804Y834D02*
X942Y834D01*
X1276Y834D02*
X1415Y834D01*
X104Y833D02*
X242Y833D01*
X576Y833D02*
X715Y833D01*
X804Y833D02*
X942Y833D01*
X1276Y833D02*
X1415Y833D01*
X104Y832D02*
X242Y832D01*
X576Y832D02*
X715Y832D01*
X804Y832D02*
X942Y832D01*
X1276Y832D02*
X1415Y832D01*
X104Y831D02*
X242Y831D01*
X576Y831D02*
X715Y831D01*
X804Y831D02*
X942Y831D01*
X1276Y831D02*
X1415Y831D01*
X104Y830D02*
X242Y830D01*
X576Y830D02*
X715Y830D01*
X804Y830D02*
X942Y830D01*
X1276Y830D02*
X1415Y830D01*
X104Y829D02*
X242Y829D01*
X576Y829D02*
X715Y829D01*
X804Y829D02*
X942Y829D01*
X1276Y829D02*
X1415Y829D01*
X104Y828D02*
X242Y828D01*
X576Y828D02*
X715Y828D01*
X804Y828D02*
X942Y828D01*
X1276Y828D02*
X1414Y828D01*
X104Y827D02*
X242Y827D01*
X576Y827D02*
X714Y827D01*
X804Y827D02*
X942Y827D01*
X1276Y827D02*
X1414Y827D01*
X104Y826D02*
X242Y826D01*
X576Y826D02*
X714Y826D01*
X804Y826D02*
X942Y826D01*
X1276Y826D02*
X1414Y826D01*
X104Y825D02*
X242Y825D01*
X576Y825D02*
X714Y825D01*
X804Y825D02*
X942Y825D01*
X1276Y825D02*
X1414Y825D01*
X104Y824D02*
X242Y824D01*
X577Y824D02*
X714Y824D01*
X804Y824D02*
X942Y824D01*
X1277Y824D02*
X1414Y824D01*
X104Y823D02*
X242Y823D01*
X577Y823D02*
X714Y823D01*
X804Y823D02*
X942Y823D01*
X1277Y823D02*
X1414Y823D01*
X105Y822D02*
X241Y822D01*
X577Y822D02*
X714Y822D01*
X804Y822D02*
X941Y822D01*
X1277Y822D02*
X1414Y822D01*
X105Y821D02*
X241Y821D01*
X577Y821D02*
X714Y821D01*
X805Y821D02*
X941Y821D01*
X1277Y821D02*
X1414Y821D01*
X105Y820D02*
X241Y820D01*
X577Y820D02*
X714Y820D01*
X805Y820D02*
X941Y820D01*
X1277Y820D02*
X1413Y820D01*
X105Y819D02*
X241Y819D01*
X577Y819D02*
X713Y819D01*
X805Y819D02*
X941Y819D01*
X1277Y819D02*
X1413Y819D01*
X105Y818D02*
X241Y818D01*
X578Y818D02*
X713Y818D01*
X805Y818D02*
X941Y818D01*
X1278Y818D02*
X1413Y818D01*
X105Y817D02*
X241Y817D01*
X578Y817D02*
X713Y817D01*
X805Y817D02*
X940Y817D01*
X1278Y817D02*
X1413Y817D01*
X106Y816D02*
X240Y816D01*
X578Y816D02*
X713Y816D01*
X806Y816D02*
X940Y816D01*
X1278Y816D02*
X1413Y816D01*
X106Y815D02*
X240Y815D01*
X578Y815D02*
X712Y815D01*
X806Y815D02*
X940Y815D01*
X1278Y815D02*
X1412Y815D01*
X106Y814D02*
X240Y814D01*
X579Y814D02*
X712Y814D01*
X806Y814D02*
X940Y814D01*
X1279Y814D02*
X1412Y814D01*
X106Y813D02*
X240Y813D01*
X579Y813D02*
X712Y813D01*
X806Y813D02*
X939Y813D01*
X1279Y813D02*
X1412Y813D01*
X107Y812D02*
X239Y812D01*
X579Y812D02*
X712Y812D01*
X807Y812D02*
X939Y812D01*
X1279Y812D02*
X1412Y812D01*
X107Y811D02*
X239Y811D01*
X579Y811D02*
X711Y811D01*
X807Y811D02*
X939Y811D01*
X1279Y811D02*
X1411Y811D01*
X107Y810D02*
X239Y810D01*
X580Y810D02*
X711Y810D01*
X807Y810D02*
X939Y810D01*
X1280Y810D02*
X1411Y810D01*
X108Y809D02*
X238Y809D01*
X580Y809D02*
X711Y809D01*
X808Y809D02*
X938Y809D01*
X1280Y809D02*
X1411Y809D01*
X108Y808D02*
X238Y808D01*
X580Y808D02*
X710Y808D01*
X808Y808D02*
X938Y808D01*
X1280Y808D02*
X1410Y808D01*
X108Y807D02*
X238Y807D01*
X581Y807D02*
X710Y807D01*
X808Y807D02*
X937Y807D01*
X1281Y807D02*
X1410Y807D01*
X109Y806D02*
X237Y806D01*
X581Y806D02*
X710Y806D01*
X809Y806D02*
X937Y806D01*
X1281Y806D02*
X1410Y806D01*
X109Y805D02*
X237Y805D01*
X582Y805D02*
X709Y805D01*
X809Y805D02*
X937Y805D01*
X1282Y805D02*
X1409Y805D01*
X110Y804D02*
X236Y804D01*
X582Y804D02*
X709Y804D01*
X810Y804D02*
X936Y804D01*
X1282Y804D02*
X1409Y804D01*
X110Y803D02*
X236Y803D01*
X583Y803D02*
X708Y803D01*
X810Y803D02*
X936Y803D01*
X1282Y803D02*
X1408Y803D01*
X111Y802D02*
X235Y802D01*
X583Y802D02*
X708Y802D01*
X811Y802D02*
X935Y802D01*
X1283Y802D02*
X1408Y802D01*
X111Y801D02*
X235Y801D01*
X584Y801D02*
X707Y801D01*
X811Y801D02*
X935Y801D01*
X1283Y801D02*
X1407Y801D01*
X112Y800D02*
X234Y800D01*
X584Y800D02*
X707Y800D01*
X812Y800D02*
X934Y800D01*
X1284Y800D02*
X1407Y800D01*
X112Y799D02*
X234Y799D01*
X585Y799D02*
X706Y799D01*
X812Y799D02*
X934Y799D01*
X1285Y799D02*
X1406Y799D01*
X113Y798D02*
X233Y798D01*
X585Y798D02*
X706Y798D01*
X813Y798D02*
X933Y798D01*
X1285Y798D02*
X1405Y798D01*
X113Y797D02*
X233Y797D01*
X586Y797D02*
X705Y797D01*
X813Y797D02*
X933Y797D01*
X1286Y797D02*
X1405Y797D01*
X114Y796D02*
X232Y796D01*
X586Y796D02*
X704Y796D01*
X814Y796D02*
X932Y796D01*
X1286Y796D02*
X1404Y796D01*
X115Y795D02*
X231Y795D01*
X587Y795D02*
X704Y795D01*
X815Y795D02*
X931Y795D01*
X1287Y795D02*
X1404Y795D01*
X115Y794D02*
X231Y794D01*
X588Y794D02*
X703Y794D01*
X815Y794D02*
X931Y794D01*
X1288Y794D02*
X1403Y794D01*
X116Y793D02*
X230Y793D01*
X588Y793D02*
X702Y793D01*
X816Y793D02*
X930Y793D01*
X1288Y793D02*
X1402Y793D01*
X117Y792D02*
X229Y792D01*
X589Y792D02*
X702Y792D01*
X817Y792D02*
X929Y792D01*
X1289Y792D02*
X1402Y792D01*
X117Y791D02*
X229Y791D01*
X590Y791D02*
X701Y791D01*
X817Y791D02*
X929Y791D01*
X1290Y791D02*
X1401Y791D01*
X118Y790D02*
X228Y790D01*
X591Y790D02*
X700Y790D01*
X818Y790D02*
X928Y790D01*
X1290Y790D02*
X1400Y790D01*
X119Y789D02*
X227Y789D01*
X591Y789D02*
X699Y789D01*
X819Y789D02*
X927Y789D01*
X1291Y789D02*
X1399Y789D01*
X120Y788D02*
X226Y788D01*
X592Y788D02*
X699Y788D01*
X820Y788D02*
X926Y788D01*
X1292Y788D02*
X1399Y788D01*
X121Y787D02*
X225Y787D01*
X593Y787D02*
X698Y787D01*
X820Y787D02*
X925Y787D01*
X1293Y787D02*
X1398Y787D01*
X121Y786D02*
X225Y786D01*
X594Y786D02*
X697Y786D01*
X821Y786D02*
X925Y786D01*
X1294Y786D02*
X1397Y786D01*
X122Y785D02*
X224Y785D01*
X595Y785D02*
X696Y785D01*
X822Y785D02*
X924Y785D01*
X1295Y785D02*
X1396Y785D01*
X123Y784D02*
X223Y784D01*
X596Y784D02*
X695Y784D01*
X823Y784D02*
X923Y784D01*
X1296Y784D02*
X1395Y784D01*
X124Y783D02*
X222Y783D01*
X596Y783D02*
X694Y783D01*
X824Y783D02*
X922Y783D01*
X1296Y783D02*
X1394Y783D01*
X125Y782D02*
X221Y782D01*
X598Y782D02*
X693Y782D01*
X825Y782D02*
X921Y782D01*
X1298Y782D02*
X1393Y782D01*
X126Y781D02*
X220Y781D01*
X599Y781D02*
X692Y781D01*
X826Y781D02*
X920Y781D01*
X1299Y781D02*
X1392Y781D01*
X127Y780D02*
X219Y780D01*
X600Y780D02*
X691Y780D01*
X827Y780D02*
X918Y780D01*
X1300Y780D02*
X1391Y780D01*
X129Y779D02*
X217Y779D01*
X601Y779D02*
X690Y779D01*
X829Y779D02*
X917Y779D01*
X1301Y779D02*
X1390Y779D01*
X130Y778D02*
X216Y778D01*
X602Y778D02*
X688Y778D01*
X830Y778D02*
X916Y778D01*
X1302Y778D02*
X1388Y778D01*
X131Y777D02*
X215Y777D01*
X604Y777D02*
X687Y777D01*
X831Y777D02*
X915Y777D01*
X1304Y777D02*
X1387Y777D01*
X133Y776D02*
X213Y776D01*
X605Y776D02*
X686Y776D01*
X833Y776D02*
X913Y776D01*
X1305Y776D02*
X1386Y776D01*
X134Y775D02*
X212Y775D01*
X606Y775D02*
X684Y775D01*
X834Y775D02*
X912Y775D01*
X1306Y775D02*
X1384Y775D01*
X135Y774D02*
X211Y774D01*
X608Y774D02*
X683Y774D01*
X835Y774D02*
X910Y774D01*
X1308Y774D02*
X1383Y774D01*
X137Y773D02*
X209Y773D01*
X609Y773D02*
X681Y773D01*
X837Y773D02*
X909Y773D01*
X1309Y773D02*
X1381Y773D01*
X139Y772D02*
X207Y772D01*
X611Y772D02*
X680Y772D01*
X839Y772D02*
X907Y772D01*
X1311Y772D02*
X1380Y772D01*
X140Y771D02*
X206Y771D01*
X613Y771D02*
X678Y771D01*
X840Y771D02*
X906Y771D01*
X1313Y771D02*
X1378Y771D01*
X142Y770D02*
X204Y770D01*
X615Y770D02*
X676Y770D01*
X842Y770D02*
X904Y770D01*
X1315Y770D02*
X1376Y770D01*
X144Y769D02*
X202Y769D01*
X617Y769D02*
X674Y769D01*
X844Y769D02*
X902Y769D01*
X1317Y769D02*
X1374Y769D01*
X147Y768D02*
X199Y768D01*
X619Y768D02*
X672Y768D01*
X846Y768D02*
X899Y768D01*
X1319Y768D02*
X1372Y768D01*
X149Y767D02*
X197Y767D01*
X622Y767D02*
X669Y767D01*
X849Y767D02*
X897Y767D01*
X1322Y767D02*
X1369Y767D01*
X152Y766D02*
X194Y766D01*
X625Y766D02*
X666Y766D01*
X852Y766D02*
X894Y766D01*
X1324Y766D02*
X1366Y766D01*
X156Y765D02*
X190Y765D01*
X628Y765D02*
X662Y765D01*
X856Y765D02*
X890Y765D01*
X1328Y765D02*
X1362Y765D01*
X160Y764D02*
X186Y764D01*
X633Y764D02*
X658Y764D01*
X860Y764D02*
X886Y764D01*
X1333Y764D02*
X1358Y764D01*
X167Y763D02*
X179Y763D01*
X639Y763D02*
X652Y763D01*
X867Y763D02*
X879Y763D01*
X1339Y763D02*
X1352Y763D01*
X169Y424D02*
X177Y424D01*
X642Y424D02*
X649Y424D01*
X869Y424D02*
X877Y424D01*
X1342Y424D02*
X1349Y424D01*
X161Y423D02*
X185Y423D01*
X634Y423D02*
X657Y423D01*
X861Y423D02*
X885Y423D01*
X1334Y423D02*
X1357Y423D01*
X157Y422D02*
X189Y422D01*
X629Y422D02*
X662Y422D01*
X857Y422D02*
X889Y422D01*
X1329Y422D02*
X1362Y422D01*
X153Y421D02*
X193Y421D01*
X625Y421D02*
X666Y421D01*
X853Y421D02*
X893Y421D01*
X1325Y421D02*
X1366Y421D01*
X150Y420D02*
X196Y420D01*
X622Y420D02*
X669Y420D01*
X850Y420D02*
X896Y420D01*
X1322Y420D02*
X1369Y420D01*
X147Y419D02*
X199Y419D01*
X619Y419D02*
X671Y419D01*
X847Y419D02*
X899Y419D01*
X1319Y419D02*
X1371Y419D01*
X145Y418D02*
X201Y418D01*
X617Y418D02*
X674Y418D01*
X845Y418D02*
X901Y418D01*
X1317Y418D02*
X1374Y418D01*
X143Y417D02*
X203Y417D01*
X615Y417D02*
X676Y417D01*
X843Y417D02*
X903Y417D01*
X1315Y417D02*
X1376Y417D01*
X141Y416D02*
X205Y416D01*
X613Y416D02*
X678Y416D01*
X841Y416D02*
X905Y416D01*
X1313Y416D02*
X1378Y416D01*
X139Y415D02*
X207Y415D01*
X611Y415D02*
X679Y415D01*
X839Y415D02*
X907Y415D01*
X1311Y415D02*
X1379Y415D01*
X137Y414D02*
X209Y414D01*
X610Y414D02*
X681Y414D01*
X837Y414D02*
X909Y414D01*
X1310Y414D02*
X1381Y414D01*
X136Y413D02*
X210Y413D01*
X608Y413D02*
X683Y413D01*
X836Y413D02*
X910Y413D01*
X1308Y413D02*
X1383Y413D01*
X134Y412D02*
X212Y412D01*
X607Y412D02*
X684Y412D01*
X834Y412D02*
X912Y412D01*
X1306Y412D02*
X1384Y412D01*
X133Y411D02*
X213Y411D01*
X605Y411D02*
X686Y411D01*
X833Y411D02*
X913Y411D01*
X1305Y411D02*
X1385Y411D01*
X131Y410D02*
X215Y410D01*
X604Y410D02*
X687Y410D01*
X831Y410D02*
X914Y410D01*
X1304Y410D02*
X1387Y410D01*
X130Y409D02*
X216Y409D01*
X602Y409D02*
X688Y409D01*
X830Y409D02*
X916Y409D01*
X1302Y409D02*
X1388Y409D01*
X129Y408D02*
X217Y408D01*
X601Y408D02*
X690Y408D01*
X829Y408D02*
X917Y408D01*
X1301Y408D02*
X1390Y408D01*
X128Y407D02*
X218Y407D01*
X600Y407D02*
X691Y407D01*
X828Y407D02*
X918Y407D01*
X1300Y407D02*
X1391Y407D01*
X127Y406D02*
X219Y406D01*
X599Y406D02*
X692Y406D01*
X826Y406D02*
X919Y406D01*
X1299Y406D02*
X1392Y406D01*
X125Y405D02*
X221Y405D01*
X598Y405D02*
X693Y405D01*
X825Y405D02*
X921Y405D01*
X1298Y405D02*
X1393Y405D01*
X124Y404D02*
X222Y404D01*
X597Y404D02*
X694Y404D01*
X824Y404D02*
X922Y404D01*
X1297Y404D02*
X1394Y404D01*
X123Y403D02*
X223Y403D01*
X596Y403D02*
X695Y403D01*
X823Y403D02*
X923Y403D01*
X1296Y403D02*
X1395Y403D01*
X122Y402D02*
X224Y402D01*
X595Y402D02*
X696Y402D01*
X822Y402D02*
X923Y402D01*
X1295Y402D02*
X1396Y402D01*
X122Y401D02*
X224Y401D01*
X594Y401D02*
X697Y401D01*
X822Y401D02*
X924Y401D01*
X1294Y401D02*
X1397Y401D01*
X121Y400D02*
X225Y400D01*
X593Y400D02*
X698Y400D01*
X821Y400D02*
X925Y400D01*
X1293Y400D02*
X1398Y400D01*
X120Y399D02*
X226Y399D01*
X592Y399D02*
X699Y399D01*
X820Y399D02*
X926Y399D01*
X1292Y399D02*
X1399Y399D01*
X119Y398D02*
X227Y398D01*
X591Y398D02*
X699Y398D01*
X819Y398D02*
X927Y398D01*
X1291Y398D02*
X1399Y398D01*
X118Y397D02*
X228Y397D01*
X591Y397D02*
X700Y397D01*
X818Y397D02*
X928Y397D01*
X1291Y397D02*
X1400Y397D01*
X118Y396D02*
X228Y396D01*
X590Y396D02*
X701Y396D01*
X817Y396D02*
X928Y396D01*
X1290Y396D02*
X1401Y396D01*
X117Y395D02*
X229Y395D01*
X589Y395D02*
X702Y395D01*
X817Y395D02*
X929Y395D01*
X1289Y395D02*
X1401Y395D01*
X116Y394D02*
X230Y394D01*
X588Y394D02*
X702Y394D01*
X816Y394D02*
X930Y394D01*
X1288Y394D02*
X1402Y394D01*
X115Y393D02*
X231Y393D01*
X588Y393D02*
X703Y393D01*
X815Y393D02*
X931Y393D01*
X1288Y393D02*
X1403Y393D01*
X115Y392D02*
X231Y392D01*
X587Y392D02*
X704Y392D01*
X815Y392D02*
X931Y392D01*
X1287Y392D02*
X1404Y392D01*
X114Y391D02*
X232Y391D01*
X587Y391D02*
X704Y391D01*
X814Y391D02*
X932Y391D01*
X1286Y391D02*
X1404Y391D01*
X114Y390D02*
X232Y390D01*
X586Y390D02*
X705Y390D01*
X813Y390D02*
X932Y390D01*
X1286Y390D02*
X1405Y390D01*
X113Y389D02*
X233Y389D01*
X585Y389D02*
X705Y389D01*
X813Y389D02*
X933Y389D01*
X1285Y389D02*
X1405Y389D01*
X112Y388D02*
X234Y388D01*
X585Y388D02*
X706Y388D01*
X812Y388D02*
X934Y388D01*
X1285Y388D02*
X1406Y388D01*
X112Y387D02*
X234Y387D01*
X584Y387D02*
X707Y387D01*
X812Y387D02*
X934Y387D01*
X1284Y387D02*
X1407Y387D01*
X111Y386D02*
X235Y386D01*
X584Y386D02*
X707Y386D01*
X811Y386D02*
X935Y386D01*
X1284Y386D02*
X1407Y386D01*
X111Y385D02*
X235Y385D01*
X583Y385D02*
X708Y385D01*
X811Y385D02*
X935Y385D01*
X1283Y385D02*
X1408Y385D01*
X110Y384D02*
X236Y384D01*
X583Y384D02*
X708Y384D01*
X810Y384D02*
X936Y384D01*
X1283Y384D02*
X1408Y384D01*
X110Y383D02*
X236Y383D01*
X582Y383D02*
X709Y383D01*
X810Y383D02*
X936Y383D01*
X1282Y383D02*
X1409Y383D01*
X109Y382D02*
X237Y382D01*
X582Y382D02*
X709Y382D01*
X809Y382D02*
X937Y382D01*
X1282Y382D02*
X1409Y382D01*
X109Y381D02*
X237Y381D01*
X581Y381D02*
X709Y381D01*
X809Y381D02*
X937Y381D01*
X1281Y381D02*
X1409Y381D01*
X109Y380D02*
X237Y380D01*
X581Y380D02*
X710Y380D01*
X808Y380D02*
X937Y380D01*
X1281Y380D02*
X1410Y380D01*
X108Y379D02*
X238Y379D01*
X581Y379D02*
X710Y379D01*
X808Y379D02*
X938Y379D01*
X1280Y379D02*
X1410Y379D01*
X108Y378D02*
X238Y378D01*
X580Y378D02*
X711Y378D01*
X808Y378D02*
X938Y378D01*
X1280Y378D02*
X1411Y378D01*
X107Y377D02*
X239Y377D01*
X580Y377D02*
X711Y377D01*
X807Y377D02*
X939Y377D01*
X1280Y377D02*
X1411Y377D01*
X107Y376D02*
X239Y376D01*
X579Y376D02*
X711Y376D01*
X807Y376D02*
X939Y376D01*
X1279Y376D02*
X1411Y376D01*
X107Y375D02*
X239Y375D01*
X579Y375D02*
X712Y375D01*
X807Y375D02*
X939Y375D01*
X1279Y375D02*
X1412Y375D01*
X106Y374D02*
X239Y374D01*
X579Y374D02*
X712Y374D01*
X806Y374D02*
X939Y374D01*
X1279Y374D02*
X1412Y374D01*
X106Y373D02*
X240Y373D01*
X579Y373D02*
X712Y373D01*
X806Y373D02*
X940Y373D01*
X1279Y373D02*
X1412Y373D01*
X106Y372D02*
X240Y372D01*
X578Y372D02*
X712Y372D01*
X806Y372D02*
X940Y372D01*
X1278Y372D02*
X1412Y372D01*
X106Y371D02*
X240Y371D01*
X578Y371D02*
X713Y371D01*
X806Y371D02*
X940Y371D01*
X1278Y371D02*
X1413Y371D01*
X105Y370D02*
X240Y370D01*
X578Y370D02*
X713Y370D01*
X805Y370D02*
X940Y370D01*
X1278Y370D02*
X1413Y370D01*
X105Y369D02*
X241Y369D01*
X578Y369D02*
X713Y369D01*
X805Y369D02*
X941Y369D01*
X1278Y369D02*
X1413Y369D01*
X105Y368D02*
X241Y368D01*
X577Y368D02*
X713Y368D01*
X805Y368D02*
X941Y368D01*
X1277Y368D02*
X1413Y368D01*
X105Y367D02*
X241Y367D01*
X577Y367D02*
X713Y367D01*
X805Y367D02*
X941Y367D01*
X1277Y367D02*
X1413Y367D01*
X105Y366D02*
X241Y366D01*
X577Y366D02*
X714Y366D01*
X805Y366D02*
X941Y366D01*
X1277Y366D02*
X1414Y366D01*
X105Y365D02*
X241Y365D01*
X577Y365D02*
X714Y365D01*
X804Y365D02*
X941Y365D01*
X1277Y365D02*
X1414Y365D01*
X104Y364D02*
X242Y364D01*
X577Y364D02*
X714Y364D01*
X804Y364D02*
X942Y364D01*
X1277Y364D02*
X1414Y364D01*
X104Y363D02*
X242Y363D01*
X577Y363D02*
X714Y363D01*
X804Y363D02*
X942Y363D01*
X1277Y363D02*
X1414Y363D01*
X104Y362D02*
X242Y362D01*
X576Y362D02*
X714Y362D01*
X804Y362D02*
X942Y362D01*
X1276Y362D02*
X1414Y362D01*
X104Y361D02*
X242Y361D01*
X576Y361D02*
X714Y361D01*
X804Y361D02*
X942Y361D01*
X1276Y361D02*
X1414Y361D01*
X104Y360D02*
X242Y360D01*
X576Y360D02*
X714Y360D01*
X804Y360D02*
X942Y360D01*
X1276Y360D02*
X1414Y360D01*
X104Y359D02*
X242Y359D01*
X576Y359D02*
X715Y359D01*
X804Y359D02*
X942Y359D01*
X1276Y359D02*
X1414Y359D01*
X104Y358D02*
X242Y358D01*
X576Y358D02*
X715Y358D01*
X804Y358D02*
X942Y358D01*
X1276Y358D02*
X1415Y358D01*
X104Y357D02*
X242Y357D01*
X576Y357D02*
X715Y357D01*
X804Y357D02*
X942Y357D01*
X1276Y357D02*
X1415Y357D01*
X104Y356D02*
X242Y356D01*
X576Y356D02*
X715Y356D01*
X804Y356D02*
X942Y356D01*
X1276Y356D02*
X1415Y356D01*
X104Y355D02*
X242Y355D01*
X576Y355D02*
X715Y355D01*
X804Y355D02*
X942Y355D01*
X1276Y355D02*
X1415Y355D01*
X104Y354D02*
X242Y354D01*
X576Y354D02*
X715Y354D01*
X804Y354D02*
X942Y354D01*
X1276Y354D02*
X1415Y354D01*
X104Y353D02*
X242Y353D01*
X576Y353D02*
X715Y353D01*
X804Y353D02*
X942Y353D01*
X1276Y353D02*
X1415Y353D01*
X104Y352D02*
X242Y352D01*
X576Y352D02*
X715Y352D01*
X804Y352D02*
X942Y352D01*
X1276Y352D02*
X1415Y352D01*
X104Y351D02*
X242Y351D01*
X576Y351D02*
X715Y351D01*
X804Y351D02*
X942Y351D01*
X1276Y351D02*
X1415Y351D01*
X104Y350D02*
X242Y350D01*
X576Y350D02*
X715Y350D01*
X804Y350D02*
X942Y350D01*
X1276Y350D02*
X1414Y350D01*
X104Y349D02*
X242Y349D01*
X576Y349D02*
X714Y349D01*
X804Y349D02*
X942Y349D01*
X1276Y349D02*
X1414Y349D01*
X104Y348D02*
X242Y348D01*
X576Y348D02*
X714Y348D01*
X804Y348D02*
X942Y348D01*
X1276Y348D02*
X1414Y348D01*
X104Y347D02*
X242Y347D01*
X576Y347D02*
X714Y347D01*
X804Y347D02*
X942Y347D01*
X1276Y347D02*
X1414Y347D01*
X104Y346D02*
X242Y346D01*
X577Y346D02*
X714Y346D01*
X804Y346D02*
X942Y346D01*
X1276Y346D02*
X1414Y346D01*
X104Y345D02*
X242Y345D01*
X577Y345D02*
X714Y345D01*
X804Y345D02*
X942Y345D01*
X1277Y345D02*
X1414Y345D01*
X104Y344D02*
X241Y344D01*
X577Y344D02*
X714Y344D01*
X804Y344D02*
X941Y344D01*
X1277Y344D02*
X1414Y344D01*
X105Y343D02*
X241Y343D01*
X577Y343D02*
X714Y343D01*
X805Y343D02*
X941Y343D01*
X1277Y343D02*
X1414Y343D01*
X105Y342D02*
X241Y342D01*
X577Y342D02*
X714Y342D01*
X805Y342D02*
X941Y342D01*
X1277Y342D02*
X1413Y342D01*
X105Y341D02*
X241Y341D01*
X577Y341D02*
X713Y341D01*
X805Y341D02*
X941Y341D01*
X1277Y341D02*
X1413Y341D01*
X105Y340D02*
X241Y340D01*
X578Y340D02*
X713Y340D01*
X805Y340D02*
X941Y340D01*
X1277Y340D02*
X1413Y340D01*
X105Y339D02*
X241Y339D01*
X578Y339D02*
X713Y339D01*
X805Y339D02*
X941Y339D01*
X1278Y339D02*
X1413Y339D01*
X106Y338D02*
X240Y338D01*
X578Y338D02*
X713Y338D01*
X806Y338D02*
X940Y338D01*
X1278Y338D02*
X1413Y338D01*
X106Y337D02*
X240Y337D01*
X578Y337D02*
X712Y337D01*
X806Y337D02*
X940Y337D01*
X1278Y337D02*
X1412Y337D01*
X106Y336D02*
X240Y336D01*
X579Y336D02*
X712Y336D01*
X806Y336D02*
X940Y336D01*
X1278Y336D02*
X1412Y336D01*
X106Y335D02*
X240Y335D01*
X579Y335D02*
X712Y335D01*
X806Y335D02*
X940Y335D01*
X1279Y335D02*
X1412Y335D01*
X107Y334D02*
X239Y334D01*
X579Y334D02*
X712Y334D01*
X807Y334D02*
X939Y334D01*
X1279Y334D02*
X1412Y334D01*
X107Y333D02*
X239Y333D01*
X579Y333D02*
X711Y333D01*
X807Y333D02*
X939Y333D01*
X1279Y333D02*
X1411Y333D01*
X107Y332D02*
X239Y332D01*
X580Y332D02*
X711Y332D01*
X807Y332D02*
X939Y332D01*
X1280Y332D02*
X1411Y332D01*
X108Y331D02*
X238Y331D01*
X580Y331D02*
X711Y331D01*
X808Y331D02*
X938Y331D01*
X1280Y331D02*
X1411Y331D01*
X108Y330D02*
X238Y330D01*
X580Y330D02*
X710Y330D01*
X808Y330D02*
X938Y330D01*
X1280Y330D02*
X1410Y330D01*
X108Y329D02*
X238Y329D01*
X581Y329D02*
X710Y329D01*
X808Y329D02*
X938Y329D01*
X1281Y329D02*
X1410Y329D01*
X109Y328D02*
X237Y328D01*
X581Y328D02*
X710Y328D01*
X809Y328D02*
X937Y328D01*
X1281Y328D02*
X1410Y328D01*
X109Y327D02*
X237Y327D01*
X581Y327D02*
X709Y327D01*
X809Y327D02*
X937Y327D01*
X1281Y327D02*
X1409Y327D01*
X110Y326D02*
X236Y326D01*
X582Y326D02*
X709Y326D01*
X810Y326D02*
X936Y326D01*
X1282Y326D02*
X1409Y326D01*
X110Y325D02*
X236Y325D01*
X582Y325D02*
X708Y325D01*
X810Y325D02*
X936Y325D01*
X1282Y325D02*
X1408Y325D01*
X111Y324D02*
X235Y324D01*
X583Y324D02*
X708Y324D01*
X811Y324D02*
X935Y324D01*
X1283Y324D02*
X1408Y324D01*
X111Y323D02*
X235Y323D01*
X583Y323D02*
X707Y323D01*
X811Y323D02*
X935Y323D01*
X1283Y323D02*
X1407Y323D01*
X112Y322D02*
X234Y322D01*
X584Y322D02*
X707Y322D01*
X811Y322D02*
X934Y322D01*
X1284Y322D02*
X1407Y322D01*
X112Y321D02*
X234Y321D01*
X584Y321D02*
X706Y321D01*
X812Y321D02*
X934Y321D01*
X1284Y321D02*
X1406Y321D01*
X113Y320D02*
X233Y320D01*
X585Y320D02*
X706Y320D01*
X813Y320D02*
X933Y320D01*
X1285Y320D02*
X1406Y320D01*
X113Y319D02*
X233Y319D01*
X586Y319D02*
X705Y319D01*
X813Y319D02*
X933Y319D01*
X1286Y319D02*
X1405Y319D01*
X114Y318D02*
X232Y318D01*
X586Y318D02*
X704Y318D01*
X814Y318D02*
X932Y318D01*
X1286Y318D02*
X1404Y318D01*
X115Y317D02*
X231Y317D01*
X587Y317D02*
X704Y317D01*
X814Y317D02*
X931Y317D01*
X1287Y317D02*
X1404Y317D01*
X115Y316D02*
X231Y316D01*
X588Y316D02*
X703Y316D01*
X815Y316D02*
X931Y316D01*
X1287Y316D02*
X1403Y316D01*
X116Y315D02*
X230Y315D01*
X588Y315D02*
X703Y315D01*
X816Y315D02*
X930Y315D01*
X1288Y315D02*
X1403Y315D01*
X117Y314D02*
X229Y314D01*
X589Y314D02*
X702Y314D01*
X816Y314D02*
X929Y314D01*
X1289Y314D02*
X1402Y314D01*
X117Y313D02*
X229Y313D01*
X590Y313D02*
X701Y313D01*
X817Y313D02*
X929Y313D01*
X1290Y313D02*
X1401Y313D01*
X118Y312D02*
X228Y312D01*
X590Y312D02*
X700Y312D01*
X818Y312D02*
X928Y312D01*
X1290Y312D02*
X1400Y312D01*
X119Y311D02*
X227Y311D01*
X591Y311D02*
X700Y311D01*
X819Y311D02*
X927Y311D01*
X1291Y311D02*
X1400Y311D01*
X119Y310D02*
X226Y310D01*
X592Y310D02*
X699Y310D01*
X819Y310D02*
X926Y310D01*
X1292Y310D02*
X1399Y310D01*
X120Y309D02*
X226Y309D01*
X593Y309D02*
X698Y309D01*
X820Y309D02*
X926Y309D01*
X1293Y309D02*
X1398Y309D01*
X121Y308D02*
X225Y308D01*
X594Y308D02*
X697Y308D01*
X821Y308D02*
X925Y308D01*
X1294Y308D02*
X1397Y308D01*
X122Y307D02*
X224Y307D01*
X594Y307D02*
X696Y307D01*
X822Y307D02*
X924Y307D01*
X1294Y307D02*
X1396Y307D01*
X123Y306D02*
X223Y306D01*
X595Y306D02*
X695Y306D01*
X823Y306D02*
X923Y306D01*
X1295Y306D02*
X1395Y306D01*
X124Y305D02*
X222Y305D01*
X596Y305D02*
X694Y305D01*
X824Y305D02*
X922Y305D01*
X1296Y305D02*
X1394Y305D01*
X125Y304D02*
X221Y304D01*
X597Y304D02*
X693Y304D01*
X825Y304D02*
X921Y304D01*
X1297Y304D02*
X1393Y304D01*
X126Y303D02*
X220Y303D01*
X598Y303D02*
X692Y303D01*
X826Y303D02*
X920Y303D01*
X1298Y303D02*
X1392Y303D01*
X127Y302D02*
X219Y302D01*
X600Y302D02*
X691Y302D01*
X827Y302D02*
X919Y302D01*
X1300Y302D02*
X1391Y302D01*
X128Y301D02*
X218Y301D01*
X601Y301D02*
X690Y301D01*
X828Y301D02*
X918Y301D01*
X1301Y301D02*
X1390Y301D01*
X130Y300D02*
X216Y300D01*
X602Y300D02*
X689Y300D01*
X830Y300D02*
X916Y300D01*
X1302Y300D02*
X1389Y300D01*
X131Y299D02*
X215Y299D01*
X603Y299D02*
X687Y299D01*
X831Y299D02*
X915Y299D01*
X1303Y299D02*
X1387Y299D01*
X132Y298D02*
X214Y298D01*
X605Y298D02*
X686Y298D01*
X832Y298D02*
X914Y298D01*
X1305Y298D02*
X1386Y298D01*
X134Y297D02*
X212Y297D01*
X606Y297D02*
X685Y297D01*
X834Y297D02*
X912Y297D01*
X1306Y297D02*
X1385Y297D01*
X135Y296D02*
X211Y296D01*
X608Y296D02*
X683Y296D01*
X835Y296D02*
X911Y296D01*
X1307Y296D02*
X1383Y296D01*
X137Y295D02*
X209Y295D01*
X609Y295D02*
X682Y295D01*
X837Y295D02*
X909Y295D01*
X1309Y295D02*
X1382Y295D01*
X138Y294D02*
X208Y294D01*
X611Y294D02*
X680Y294D01*
X838Y294D02*
X908Y294D01*
X1311Y294D02*
X1380Y294D01*
X140Y293D02*
X206Y293D01*
X612Y293D02*
X678Y293D01*
X840Y293D02*
X906Y293D01*
X1312Y293D02*
X1378Y293D01*
X142Y292D02*
X204Y292D01*
X614Y292D02*
X676Y292D01*
X842Y292D02*
X904Y292D01*
X1314Y292D02*
X1376Y292D01*
X144Y291D02*
X202Y291D01*
X616Y291D02*
X674Y291D01*
X844Y291D02*
X902Y291D01*
X1316Y291D02*
X1374Y291D01*
X146Y290D02*
X200Y290D01*
X618Y290D02*
X672Y290D01*
X846Y290D02*
X900Y290D01*
X1318Y290D02*
X1372Y290D01*
X149Y289D02*
X197Y289D01*
X621Y289D02*
X670Y289D01*
X849Y289D02*
X897Y289D01*
X1321Y289D02*
X1370Y289D01*
X152Y288D02*
X194Y288D01*
X624Y288D02*
X667Y288D01*
X852Y288D02*
X894Y288D01*
X1324Y288D02*
X1367Y288D01*
X155Y287D02*
X191Y287D01*
X628Y287D02*
X663Y287D01*
X855Y287D02*
X891Y287D01*
X1327Y287D02*
X1363Y287D01*
X159Y286D02*
X187Y286D01*
X632Y286D02*
X659Y286D01*
X859Y286D02*
X887Y286D01*
X1331Y286D02*
X1359Y286D01*
X165Y285D02*
X181Y285D01*
X638Y285D02*
X653Y285D01*
X865Y285D02*
X881Y285D01*
X1338Y285D02*
X1353Y285D01*
D02*
G04 End of Mask0*
M02*