<?xml version="1.0" encoding="UTF-8" standalone="no"?>
<!-- Created with Fritzing (http://www.fritzing.org/) -->

<svg
   xmlns:dc="http://purl.org/dc/elements/1.1/"
   xmlns:cc="http://creativecommons.org/ns#"
   xmlns:rdf="http://www.w3.org/1999/02/22-rdf-syntax-ns#"
   xmlns:svg="http://www.w3.org/2000/svg"
   xmlns="http://www.w3.org/2000/svg"
   xmlns:sodipodi="http://sodipodi.sourceforge.net/DTD/sodipodi-0.dtd"
   xmlns:inkscape="http://www.inkscape.org/namespaces/inkscape"
   version="1.2"
   x="0in"
   y="0in"
   width="1.51in"
   height="1in"
   viewBox="0 0 108.71992 72.000037"
   id="svg6510"
   sodipodi:docname="huzzah-breadboard-b.svg"
   inkscape:version="0.92.2 (5c3e80d, 2017-08-06)">
  <metadata
     id="metadata6516">
    <rdf:RDF>
      <cc:Work
         rdf:about="">
        <dc:format>image/svg+xml</dc:format>
        <dc:type
           rdf:resource="http://purl.org/dc/dcmitype/StillImage" />
        <dc:title />
      </cc:Work>
    </rdf:RDF>
  </metadata>
  <defs
     id="defs6514" />
  <sodipodi:namedview
     pagecolor="#ffffff"
     bordercolor="#666666"
     borderopacity="1"
     objecttolerance="10"
     gridtolerance="10"
     guidetolerance="10"
     inkscape:pageopacity="0"
     inkscape:pageshadow="2"
     inkscape:window-width="1563"
     inkscape:window-height="845"
     id="namedview6512"
     showgrid="true"
     inkscape:zoom="4.718543"
     inkscape:cx="49.924413"
     inkscape:cy="63.168462"
     inkscape:window-x="37"
     inkscape:window-y="27"
     inkscape:window-maximized="1"
     inkscape:current-layer="svg6510">
    <inkscape:grid
       type="xygrid"
       id="grid7105"
       spacingx="0.037499973"
       spacingy="0.037500021" />
  </sodipodi:namedview>
  <rect
     style="opacity:1;fill:#337380;fill-opacity:1;stroke-width:5.31755114;stroke-miterlimit:4;stroke-dasharray:none"
     id="rect10805"
     width="108.72005"
     height="72.000038"
     x="-6.4730652e-05"
     y="-1.1469726e-06"
     rx="3.7500019"
     ry="3.7500019" />
  <path
     style="fill:#ffffff"
     inkscape:connector-curvature="0"
     id="Adafruit_logo"
     gorn="0.1.0.0.0.0.4"
     d="m 19.599815,12.736153 c -0.035,-0.222 -0.156,-0.285 -0.446,-0.378999 -0.221,-0.071 -1.701,-0.54201 -1.701,-0.54201 0,0 -1.032,-0.390999 -1.797,0.161009 -0.103,0.074 -0.208,0.159 -0.316,0.249 0.09,-0.107 0.174,-0.214 0.249,-0.317009 0.549,-0.766 0.159,-1.796008 0.159,-1.796008 0,0 -0.475,-1.4790066 -0.546,-1.7010066 -0.094,-0.2899997 -0.157,-0.4099997 -0.38,-0.4449997 -0.223,-0.035 -0.32,0.06 -0.498,0.308 -0.135,0.1880097 -1.042,1.4500077 -1.042,1.4500077 0,0 -0.688,0.8610076 -0.401,1.7590066 0.039,0.12101 0.086,0.24801 0.139,0.37801 -0.074,-0.119 -0.15,-0.231 -0.225,-0.33501 -0.558,-0.758999 -1.66,-0.704999 -1.66,-0.704999 0,0 -1.5530009,-0.007 -1.7860015,-0.007 -0.305,-10e-4 -0.439,0.022 -0.541,0.222999 -0.102,0.201 -0.042,0.323001 0.139,0.56901 0.137,0.188 1.0580015,1.439008 1.0580015,1.439008 0,0 0.606,0.920999 1.548,0.924999 0.126,0.001 0.262,-0.005 0.401,-0.016 -0.136,0.034 -0.266,0.07 -0.386,0.109999 -0.895,0.297 -1.184,1.360008 -1.184,1.360008 0,0 -0.4860003,1.477007 -0.5590006,1.696007 -0.095,0.291 -0.115,0.426 0.045,0.584 0.1589986,0.15901 0.2939986,0.14001 0.5839986,0.044 0.22,-0.072 1.695,-0.56101 1.695,-0.56101 0,0 1.064,-0.292 1.358,-1.188008 0.039,-0.119 0.076,-0.25 0.109,-0.386 -0.01,0.14 -0.015,0.274 -0.014,0.401 0.005,0.942008 0.927,1.547008 0.927,1.547008 0,0 1.254,0.91701 1.441,1.05501 0.248,0.18 0.37,0.24 0.569,0.137 0.202,-0.102 0.224,-0.235 0.222,-0.541 0,-0.231 -0.01,-1.785009 -0.01,-1.785009 0,0 0.052,-1.102008 -0.709,-1.659007 -0.102,-0.074 -0.214,-0.15 -0.333,-0.224 0.13,0.053 0.257,0.1 0.377,0.138 0.898,0.286 1.758,-0.403999 1.758,-0.403999 0,0 1.26,-0.908008 1.448,-1.044008 0.248,-0.17801 0.343,-0.27601 0.308,-0.498009 z m -5.35,-1.142999 c 0.169,0.026 0.253,0.386999 0.188,0.805 -0.065,0.418009 -0.256,0.735008 -0.426,0.708008 -0.17,-0.026 -0.254,-0.386999 -0.188,-0.805008 0.065,-0.418 0.256,-0.735 0.426,-0.708 z m -2.17,1.106999 c 0.077,-0.152 0.446,-0.121 0.823,0.07 0.377,0.190999 0.619,0.471999 0.542,0.623999 -0.078,0.152999 -0.446,0.121 -0.824,-0.069 -0.376,-0.191999 -0.62,-0.470999 -0.541,-0.624999 z m 1.144,2.083996 c -0.299,0.3 -0.64,0.442999 -0.762,0.322999 -0.122,-0.121999 0.023,-0.462999 0.322,-0.761998 0.298,-0.3 0.639,-0.443999 0.76,-0.323 0.123,0.123 -0.022,0.462999 -0.32,0.761999 z m 1.646,0.701999 c -0.152,0.077 -0.433,-0.165 -0.625,-0.540999 -0.192,-0.37701 -0.225,-0.746009 -0.071,-0.824009 0.152,-0.077 0.433,0.165 0.625,0.541009 0.192,0.377 0.223,0.745999 0.071,0.823999 z m 0.397,-1.744997 c -0.417,0.066 -0.779,-0.017 -0.806,-0.187 -0.027,-0.168999 0.291,-0.359999 0.708,-0.426999 0.418,-0.066 0.778,0.017 0.805,0.186 0.027,0.17 -0.29,0.361999 -0.707,0.427999 z" />
  <g
     id="ESP-12"
     transform="matrix(0.95449058,0,0,0.95449058,5.1969859,1.5648955)">
    <rect
       y="20.803003"
       x="37.358002"
       gorn="0.1.0.0.0.0.1"
       height="31.856199"
       id="ESP-12_PCB"
       width="70.867104"
       style="fill:#285a63" />
    <g
       id="Wifi_Antenna"
       gorn="0.1.0.0.0.0.2.0.0.0.0"
       transform="matrix(0,-1,1.21906,0,-107.10847,-352.7165)">
      <path
         style="fill:#9a916c"
         inkscape:connector-curvature="0"
         id="path4088"
         gorn="0.1.0.0.0.0.2.0.0.0.0.0.0.0.0.0.0.0"
         d="m -378.14,157.595 v 16.1711 c -0.065,0.53 -0.284,0.977 -1.034,1.14801 h -1.867 c -0.742,-0.078 -0.904,-0.458 -0.898,-0.92501 v -6.95303 h -1.267 v 6.98403 c -0.01,0.50501 -0.281,0.82601 -1,0.79801 h -1.731 c -0.849,-0.058 -0.993,-0.415 -1,-0.83001 v -7.04803 h -1.067 v 7.01603 c -0.031,0.52401 -0.228,0.74201 -0.899,0.79801 h -2 c -0.531,-0.023 -0.87,-0.266 -0.933,-0.82901 v -6.88903 h -1.301 v 6.79403 c -0.027,0.50101 -0.351,0.80601 -1.132,0.79701 h -7.28001 c -0.653,-0.059 -1.152,-0.317 -1.119,-1.27101 h 8.10001 v -7.14903 c 0.007,-0.423 0.233,-0.621 0.65,-0.622 h 2.85 c 0.313,0.04 0.54,0.181 0.574,0.55 v 7.18404 h 1.258 v -6.98403 c -0.067,-0.451 0.067,-0.679 0.409,-0.679 h 2.557 c 0.371,0.025 0.752,0.026 0.786,0.753 v 7.26104 h 0.98 v -7.46304 c 0.071,-0.45 0.288,-0.487 0.516,-0.495 h 2.75 c 0.448,-0.014 0.665,0.209 0.675,0.646 v 7.34304 h 1.258 v -11.2591 h -14.129 c -1.154,0.01 -1.034,-0.311 -1.07,-0.591 -0.086,-0.64001 0.532,-0.66401 1.187,-0.65601 h 13.979 v -3.63302 z" />
    </g>
    <g
       id="Cover">
      <rect
         y="22.826014"
         x="38.981003"
         gorn="0.1.0.0.0.0.3"
         height="27.9741"
         stroke-miterlimit="1"
         id="AI_Thinker_Metal_Cover"
         width="42.789001"
         style="fill:#cccccf;stroke:#000000;stroke-width:0.3554;stroke-miterlimit:1" />
      <text
         style="font-size:5px;font-family:OCRA"
         id="text6031"
         font-size="5"
         x="42.967999"
         y="29.871">Adafruit</text>
      <text
         style="font-size:5px;font-family:OCRA"
         id="text6067"
         font-size="5"
         x="42.967999"
         y="47.870998">Breakout</text>
      <text
         style="font-size:5px;font-family:OCRA"
         id="text6055"
         font-size="5"
         x="42.967999"
         y="41.870998">ESP8266</text>
      <text
         style="font-size:5px;font-family:OCRA"
         id="text6043"
         font-size="5"
         x="42.967999"
         y="35.870998">HUZZAH</text>
    </g>
  </g>
  <g
     id="g1089">
    <g
       transform="translate(-110.015,-441.2046)"
       id="g6082">
      <circle
         cy="506.29199"
         cx="200.181"
         r="1.196"
         id="circle6079"
         style="fill:#383938" />
      <circle
         cy="506.29199"
         gorn="0.1.0.0.0.0.9.1"
         cx="200.181"
         id="connector11pin"
         r="1.584"
         style="fill:none;stroke:#9a916c;stroke-width:1.15199995" />
    </g>
    <g
       transform="translate(-110.015,-441.2046)"
       id="g6087">
      <circle
         cy="506.29199"
         cx="192.981"
         r="1.196"
         id="circle6084"
         style="fill:#383938" />
      <circle
         cy="506.29199"
         gorn="0.1.0.0.0.0.10.1"
         cx="192.981"
         id="connector12pin"
         r="1.584"
         style="fill:none;stroke:#9a916c;stroke-width:1.15199995" />
    </g>
    <g
       transform="translate(-110.015,-441.2046)"
       id="g6092">
      <circle
         cy="506.26401"
         cx="185.78101"
         r="1.196"
         id="circle6089"
         style="fill:#383938" />
      <circle
         cy="506.26401"
         gorn="0.1.0.0.0.0.11.1"
         cx="185.78101"
         id="connector13pin"
         r="1.584"
         style="fill:none;stroke:#9a916c;stroke-width:1.15199995" />
    </g>
    <g
       transform="translate(-110.015,-441.2046)"
       id="g6097">
      <circle
         cy="506.26401"
         cx="178.58099"
         r="1.196"
         id="circle6094"
         style="fill:#383938" />
      <circle
         cy="506.26401"
         gorn="0.1.0.0.0.0.12.1"
         cx="178.58099"
         id="connector14pin"
         r="1.584"
         style="fill:none;stroke:#9a916c;stroke-width:1.15199995" />
    </g>
    <g
       transform="translate(-110.015,-441.2046)"
       id="g6102">
      <circle
         cy="506.29199"
         cx="171.381"
         r="1.196"
         id="circle6099"
         style="fill:#383938" />
      <circle
         cy="506.29199"
         gorn="0.1.0.0.0.0.13.1"
         cx="171.381"
         id="connector15pin"
         r="1.584"
         style="fill:none;stroke:#9a916c;stroke-width:1.15199995" />
    </g>
    <g
       transform="translate(-110.015,-441.2046)"
       id="g6107">
      <circle
         cy="506.293"
         cx="164.181"
         r="1.196"
         id="circle6104"
         style="fill:#383938" />
      <circle
         cy="506.293"
         gorn="0.1.0.0.0.0.14.1"
         cx="164.181"
         id="connector16pin"
         r="1.584"
         style="fill:none;stroke:#9a916c;stroke-width:1.15199995" />
    </g>
    <g
       transform="translate(-110.015,-441.2046)"
       id="g6112">
      <circle
         cy="506.293"
         cx="156.981"
         r="1.196"
         id="circle6109"
         style="fill:#383938" />
      <circle
         cy="506.293"
         gorn="0.1.0.0.0.0.15.1"
         cx="156.981"
         id="connector17pin"
         r="1.584"
         style="fill:none;stroke:#9a916c;stroke-width:1.15199995" />
    </g>
    <g
       transform="translate(-110.015,-441.2046)"
       id="g6117">
      <circle
         cy="506.293"
         cx="149.78101"
         r="1.196"
         id="circle6114"
         style="fill:#383938" />
      <circle
         cy="506.293"
         gorn="0.1.0.0.0.0.16.1"
         cx="149.78101"
         id="connector18pin"
         r="1.584"
         style="fill:none;stroke:#9a916c;stroke-width:1.15199995" />
    </g>
    <g
       transform="translate(-110.015,-441.2046)"
       id="g6122">
      <circle
         cy="506.293"
         cx="142.582"
         r="1.196"
         id="circle6119"
         style="fill:#383938" />
      <circle
         cy="506.293"
         gorn="0.1.0.0.0.0.17.1"
         cx="142.582"
         id="connector19pin"
         r="1.584"
         style="fill:none;stroke:#9a916c;stroke-width:1.15199995" />
    </g>
    <g
       transform="translate(-110.015,-441.2046)"
       id="g6127">
      <circle
         cy="506.29199"
         cx="135.381"
         r="1.196"
         id="circle6124"
         style="fill:#383938" />
      <circle
         cy="506.29199"
         gorn="0.1.0.0.0.0.18.1"
         cx="135.381"
         id="connector20pin"
         r="1.584"
         style="fill:none;stroke:#9a916c;stroke-width:1.15199995" />
    </g>
  </g>
  <g
     id="g9679"
     transform="translate(0,3.3618475)">
    <g
       transform="translate(-110.015,-437.288)"
       id="g6132">
      <circle
         cy="441.51801"
         cx="200.181"
         r="1.196"
         id="circle6129"
         style="fill:#383938" />
      <circle
         cy="441.51801"
         gorn="0.1.0.0.0.0.19.1"
         cx="200.181"
         id="connector10pin"
         r="1.584"
         style="fill:none;stroke:#9a916c;stroke-width:1.15199995" />
    </g>
    <g
       transform="translate(-110.015,-437.288)"
       id="g6137">
      <circle
         cy="441.51801"
         cx="192.981"
         r="1.196"
         id="circle6134"
         style="fill:#383938" />
      <circle
         cy="441.51801"
         gorn="0.1.0.0.0.0.20.1"
         cx="192.981"
         id="connector9pin"
         r="1.584"
         style="fill:none;stroke:#9a916c;stroke-width:1.15199995" />
    </g>
    <g
       transform="translate(-110.015,-437.288)"
       id="g6142">
      <circle
         cy="441.491"
         cx="185.78101"
         r="1.196"
         id="circle6139"
         style="fill:#383938" />
      <circle
         cy="441.491"
         gorn="0.1.0.0.0.0.21.1"
         cx="185.78101"
         id="connector8pin"
         r="1.584"
         style="fill:none;stroke:#9a916c;stroke-width:1.15199995" />
    </g>
    <g
       transform="translate(-110.015,-437.288)"
       id="g6147">
      <circle
         cy="441.491"
         cx="178.58099"
         r="1.196"
         id="circle6144"
         style="fill:#383938" />
      <circle
         cy="441.491"
         gorn="0.1.0.0.0.0.22.1"
         cx="178.58099"
         id="connector7pin"
         r="1.584"
         style="fill:none;stroke:#9a916c;stroke-width:1.15199995" />
    </g>
    <g
       transform="translate(-110.015,-437.288)"
       id="g6152">
      <circle
         cy="441.51801"
         cx="171.381"
         r="1.196"
         id="circle6149"
         style="fill:#383938" />
      <circle
         cy="441.51801"
         gorn="0.1.0.0.0.0.23.1"
         cx="171.381"
         id="connector6pin"
         r="1.584"
         style="fill:none;stroke:#9a916c;stroke-width:1.15199995" />
    </g>
    <g
       transform="translate(-110.015,-437.288)"
       id="g6157">
      <circle
         cy="441.51901"
         cx="164.181"
         r="1.196"
         id="circle6154"
         style="fill:#383938" />
      <circle
         cy="441.51901"
         gorn="0.1.0.0.0.0.24.1"
         cx="164.181"
         id="connector5pin"
         r="1.584"
         style="fill:none;stroke:#9a916c;stroke-width:1.15199995" />
    </g>
    <g
       transform="translate(-110.015,-437.288)"
       id="g6162">
      <circle
         cy="441.51901"
         cx="156.981"
         r="1.196"
         id="circle6159"
         style="fill:#383938" />
      <circle
         cy="441.51901"
         gorn="0.1.0.0.0.0.25.1"
         cx="156.981"
         id="connector4pin"
         r="1.584"
         style="fill:none;stroke:#9a916c;stroke-width:1.15199995" />
    </g>
    <g
       transform="translate(-110.015,-437.288)"
       id="g6167">
      <circle
         cy="441.51901"
         cx="149.78101"
         r="1.196"
         id="circle6164"
         style="fill:#383938" />
      <circle
         cy="441.51901"
         gorn="0.1.0.0.0.0.26.1"
         cx="149.78101"
         id="connector3pin"
         r="1.584"
         style="fill:none;stroke:#9a916c;stroke-width:1.15199995" />
    </g>
    <g
       transform="translate(-110.015,-437.288)"
       id="g6172">
      <circle
         cy="441.51901"
         cx="142.582"
         r="1.196"
         id="circle6169"
         style="fill:#383938" />
      <circle
         cy="441.51901"
         gorn="0.1.0.0.0.0.27.1"
         cx="142.582"
         id="connector2pin"
         r="1.584"
         style="fill:none;stroke:#9a916c;stroke-width:1.15199995" />
    </g>
    <g
       transform="translate(-110.015,-437.288)"
       id="g6177">
      <circle
         cy="441.51801"
         cx="135.381"
         r="1.196"
         id="circle6174"
         style="fill:#383938" />
      <circle
         cy="441.51801"
         gorn="0.1.0.0.0.0.28.1"
         cx="135.381"
         id="connector1pin"
         r="1.584"
         style="fill:none;stroke:#9a916c;stroke-width:1.15199995" />
    </g>
  </g>
  <g
     id="g1440">
    <g
       transform="rotate(-90,24.14635,-3.0274219)"
       id="g6209">
      <g
         id="g6207">
        <g
           id="g6205">
          <g
             id="g6203">
            <g
               id="g6201">
              <text
                 font-size="5"
                 id="text6199"
                 style="font-size:5px;font-family:OCRA;fill:#e6e6e6">GND</text>
            </g>
          </g>
        </g>
      </g>
    </g>
    <g
       transform="rotate(-90,29.622105,-4.8898955)"
       id="g6221">
      <g
         id="g6219">
        <g
           id="g6217">
          <g
             id="g6215">
            <g
               id="g6213">
              <text
                 font-size="5"
                 id="text6211"
                 style="font-size:5px;font-family:OCRA;fill:#e6e6e6">VBat</text>
            </g>
          </g>
        </g>
      </g>
    </g>
    <g
       transform="rotate(-90,29.598823,-12.093177)"
       id="g6233">
      <g
         id="g6231">
        <g
           id="g6229">
          <g
             id="g6227">
            <g
               id="g6225">
              <text
                 font-size="5"
                 id="text6223"
                 style="font-size:5px;font-family:OCRA;fill:#e6e6e6">V+</text>
            </g>
          </g>
        </g>
      </g>
    </g>
    <g
       transform="rotate(-90,34.995464,-13.876536)"
       id="g6245">
      <g
         id="g6243">
        <g
           id="g6241">
          <g
             id="g6239">
            <g
               id="g6237">
              <text
                 font-size="5"
                 id="text6235"
                 style="font-size:5px;font-family:OCRA;fill:#e6e6e6">#13</text>
            </g>
          </g>
        </g>
      </g>
    </g>
    <g
       transform="rotate(-90,38.585464,-17.466536)"
       id="g6257">
      <g
         id="g6255">
        <g
           id="g6253">
          <g
             id="g6251">
            <g
               id="g6249">
              <text
                 font-size="5"
                 id="text6247"
                 style="font-size:5px;font-family:OCRA;fill:#e6e6e6">#12</text>
            </g>
          </g>
        </g>
      </g>
    </g>
    <g
       transform="rotate(-90,42.112964,-21.119036)"
       id="g6269">
      <g
         id="g6267">
        <g
           id="g6265">
          <g
             id="g6263">
            <g
               id="g6261">
              <text
                 font-size="5"
                 id="text6259"
                 style="font-size:5px;font-family:OCRA;fill:#e6e6e6">#14</text>
            </g>
          </g>
        </g>
      </g>
    </g>
    <g
       transform="rotate(-90,45.765464,-24.646536)"
       id="g6281">
      <g
         id="g6279">
        <g
           id="g6277">
          <g
             id="g6275">
            <g
               id="g6273">
              <text
                 font-size="5"
                 id="text6271"
                 style="font-size:5px;font-family:OCRA;fill:#e6e6e6">#16</text>
            </g>
          </g>
        </g>
      </g>
    </g>
    <g
       transform="rotate(-90,47.548823,-30.043177)"
       id="g6293">
      <g
         id="g6291">
        <g
           id="g6289">
          <g
             id="g6287">
            <g
               id="g6285">
              <text
                 font-size="5"
                 id="text6283"
                 style="font-size:5px;font-family:OCRA;fill:#e6e6e6">EN</text>
            </g>
          </g>
        </g>
      </g>
    </g>
    <g
       transform="rotate(-90,49.334683,-35.437317)"
       id="g6305">
      <g
         id="g6303">
        <g
           id="g6301">
          <g
             id="g6299">
            <g
               id="g6297">
              <text
                 font-size="5"
                 id="text6295"
                 style="font-size:5px;font-family:OCRA;fill:#e6e6e6">A</text>
            </g>
          </g>
        </g>
      </g>
    </g>
    <g
       transform="rotate(-90,56.535464,-35.416536)"
       id="g6317">
      <g
         id="g6315">
        <g
           id="g6313">
          <g
             id="g6311">
            <g
               id="g6309">
              <text
                 font-size="5"
                 id="text6307"
                 style="font-size:5px;font-family:OCRA;fill:#e6e6e6">RST</text>
            </g>
          </g>
        </g>
      </g>
    </g>
  </g>
  <g
     id="g1562"
     transform="translate(0,-0.3178949)">
    <g
       transform="rotate(-90,45.140836,17.808836)"
       id="g6329">
      <g
         id="g6327">
        <g
           id="g6325">
          <g
             id="g6323">
            <g
               id="g6321">
              <text
                 font-size="5"
                 id="text6319"
                 style="font-size:5px;font-family:OCRA;fill:#e6e6e6">GND</text>
            </g>
          </g>
        </g>
      </g>
    </g>
    <g
       transform="rotate(-90,48.730836,14.218836)"
       id="g6341">
      <g
         id="g6339">
        <g
           id="g6337">
          <g
             id="g6335">
            <g
               id="g6333">
              <text
                 font-size="5"
                 id="text6331"
                 style="font-size:5px;font-family:OCRA;fill:#e6e6e6">LDO</text>
            </g>
          </g>
        </g>
      </g>
    </g>
    <g
       transform="rotate(-90,52.320836,10.628835)"
       id="g6353">
      <g
         id="g6351">
        <g
           id="g6349">
          <g
             id="g6347">
            <g
               id="g6345">
              <text
                 font-size="5"
                 id="text6343"
                 style="font-size:5px;font-family:OCRA;fill:#e6e6e6">3V</text>
            </g>
          </g>
        </g>
      </g>
    </g>
    <g
       transform="rotate(-90,55.990311,6.9593605)"
       id="g6365">
      <g
         id="g6363">
        <g
           id="g6361">
          <g
             id="g6359">
            <g
               id="g6357">
              <text
                 font-size="5"
                 id="text6355"
                 style="font-size:5px;font-family:OCRA;fill:#e6e6e6">#15</text>
            </g>
          </g>
        </g>
      </g>
    </g>
    <g
       transform="rotate(-90,59.500837,3.4488348)"
       id="g6377">
      <g
         id="g6375">
        <g
           id="g6373">
          <g
             id="g6371">
            <g
               id="g6369">
              <text
                 font-size="5"
                 id="text6367"
                 style="font-size:5px;font-family:OCRA;fill:#e6e6e6">#2</text>
            </g>
          </g>
        </g>
      </g>
    </g>
    <g
       transform="rotate(-90,63.090837,-0.14116517)"
       id="g6389">
      <g
         id="g6387">
        <g
           id="g6385">
          <g
             id="g6383">
            <g
               id="g6381">
              <text
                 font-size="5"
                 id="text6379"
                 style="font-size:5px;font-family:OCRA;fill:#e6e6e6">#0</text>
            </g>
          </g>
        </g>
      </g>
    </g>
    <g
       transform="rotate(-90,66.680837,-3.7311652)"
       id="g6401">
      <g
         id="g6399">
        <g
           id="g6397">
          <g
             id="g6395">
            <g
               id="g6393">
              <text
                 font-size="5"
                 id="text6391"
                 style="font-size:5px;font-family:OCRA;fill:#e6e6e6">#4</text>
            </g>
          </g>
        </g>
      </g>
    </g>
    <g
       transform="rotate(-90,70.270837,-7.3211652)"
       id="g6413">
      <g
         id="g6411">
        <g
           id="g6409">
          <g
             id="g6407">
            <g
               id="g6405">
              <text
                 font-size="5"
                 id="text6403"
                 style="font-size:5px;font-family:OCRA;fill:#e6e6e6">#5</text>
            </g>
          </g>
        </g>
      </g>
    </g>
    <g
       transform="rotate(-90,73.860836,-10.911164)"
       id="g6425">
      <g
         id="g6423">
        <g
           id="g6421">
          <g
             id="g6419">
            <g
               id="g6417">
              <text
                 font-size="5"
                 id="text6415"
                 style="font-size:5px;font-family:OCRA;fill:#e6e6e6">RX</text>
            </g>
          </g>
        </g>
      </g>
    </g>
    <g
       transform="rotate(-90,77.450836,-14.501164)"
       id="g6437">
      <g
         id="g6435">
        <g
           id="g6433">
          <g
             id="g6431">
            <g
               id="g6429">
              <text
                 font-size="5"
                 id="text6427"
                 style="font-size:5px;font-family:OCRA;fill:#e6e6e6">TX</text>
            </g>
          </g>
        </g>
      </g>
    </g>
  </g>
  <g
     id="g9847"
     transform="translate(0,11.114882)">
    <g
       transform="translate(6.9079723,16.7706)"
       id="g6449">
      <g
         id="g6447">
        <g
           id="g6445">
          <g
             id="g6443">
            <g
               id="g6441">
              <text
                 font-size="5"
                 id="text6439"
                 style="font-size:5px;font-family:OCRA;fill:#e6e6e6">TX</text>
            </g>
          </g>
        </g>
      </g>
    </g>
    <g
       transform="translate(6.9079723,23.9496)"
       id="g6461">
      <g
         id="g6459">
        <g
           id="g6457">
          <g
             id="g6455">
            <g
               id="g6453">
              <text
                 font-size="5"
                 id="text6451"
                 style="font-size:5px;font-family:OCRA;fill:#e6e6e6">RX</text>
            </g>
          </g>
        </g>
      </g>
    </g>
    <g
       transform="translate(6.9079723,31.1306)"
       id="g6473">
      <g
         id="g6471">
        <g
           id="g6469">
          <g
             id="g6467">
            <g
               id="g6465">
              <text
                 font-size="5"
                 id="text6463"
                 style="font-size:5px;font-family:OCRA;fill:#e6e6e6">V+</text>
            </g>
          </g>
        </g>
      </g>
    </g>
    <g
       transform="translate(6.9079723,45.4896)"
       id="g6485">
      <g
         id="g6483">
        <g
           id="g6481">
          <g
             id="g6479">
            <g
               id="g6477">
              <text
                 font-size="5"
                 id="text6475"
                 style="font-size:5px;font-family:OCRA;fill:#e6e6e6">GND</text>
            </g>
          </g>
        </g>
      </g>
    </g>
  </g>
  <g
     id="g9821"
     transform="translate(-0.15822535,7.31748)">
    <g
       transform="translate(-110.015,-437.288)"
       id="g6182">
      <circle
         cy="484.69101"
         cx="113.769"
         r="1.196"
         id="circle6179"
         style="fill:#383938" />
      <circle
         cy="484.69101"
         gorn="0.1.0.0.0.0.29.1"
         cx="113.769"
         id="connector21pin"
         r="1.584"
         style="fill:none;stroke:#9a916c;stroke-width:1.15199995" />
    </g>
    <g
       transform="translate(-110.015,-437.288)"
       id="g6187">
      <circle
         cy="470.29199"
         cx="113.796"
         r="1.196"
         id="circle6184"
         style="fill:#383938" />
      <circle
         cy="470.29199"
         gorn="0.1.0.0.0.0.30.1"
         cx="113.796"
         id="connector22pin"
         r="1.584"
         style="fill:none;stroke:#9a916c;stroke-width:1.15199995" />
    </g>
    <g
       transform="translate(-110.015,-437.288)"
       id="g6192">
      <circle
         cy="463.09201"
         cx="113.796"
         r="1.196"
         id="circle6189"
         style="fill:#383938" />
      <circle
         cy="463.091"
         gorn="0.1.0.0.0.0.31.1"
         cx="113.796"
         id="connector23pin"
         r="1.584"
         style="fill:none;stroke:#9a916c;stroke-width:1.15199995" />
    </g>
    <g
       transform="translate(-110.015,-437.288)"
       id="g6197">
      <circle
         cy="455.892"
         cx="113.769"
         r="1.196"
         id="circle6194"
         style="fill:#383938" />
      <circle
         cy="455.89099"
         gorn="0.1.0.0.0.0.32.1"
         cx="113.769"
         id="connector24pin"
         r="1.584"
         style="fill:none;stroke:#9a916c;stroke-width:1.15199995" />
    </g>
    <circle
       cy="40.002987"
       cx="3.7539971"
       r="1.196"
       id="circle6487"
       style="fill:#383938" />
    <circle
       cy="40.002987"
       gorn="0.1.0.0.0.0.58"
       cx="3.7539971"
       id="connector0pin_4_"
       r="1.584"
       style="fill:none;stroke:#635d46;stroke-width:1.15199995" />
    <circle
       cy="10.754999"
       cx="3.7809975"
       r="1.196"
       id="circle6490"
       style="fill:#383938" />
    <circle
       cy="10.754999"
       gorn="0.1.0.0.0.0.60"
       cx="3.7809975"
       id="connector0pin_5_"
       r="1.584"
       style="fill:none;stroke:#635d46;stroke-width:1.15199995" />
  </g>
  <g
     id="g10811">
    <circle
       r="3.7500019"
       cy="4.9321041"
       cx="4.9320426"
       id="path10803"
       style="opacity:1;fill:#90a959;fill-opacity:1;stroke-width:1.34929204;stroke-miterlimit:4;stroke-dasharray:none" />
    <circle
       r="2.0665779"
       cy="4.9321041"
       cx="4.9320426"
       id="path10807"
       style="opacity:1;fill:#ffffff;fill-opacity:1;stroke:#ffffff;stroke-width:1.23929596;stroke-miterlimit:4;stroke-dasharray:none;stroke-opacity:1" />
  </g>
  <g
     id="g10817"
     transform="translate(99.000065)">
    <circle
       style="opacity:1;fill:#90a959;fill-opacity:1;stroke-width:1.34929204;stroke-miterlimit:4;stroke-dasharray:none"
       id="circle10813"
       cx="4.9320426"
       cy="4.9321041"
       r="3.7500019" />
    <circle
       style="opacity:1;fill:#ffffff;fill-opacity:1;stroke:#ffffff;stroke-width:1.23929596;stroke-miterlimit:4;stroke-dasharray:none;stroke-opacity:1"
       id="circle10815"
       cx="4.9320426"
       cy="4.9321041"
       r="2.0665779" />
  </g>
  <g
     transform="translate(99.000065,61.50004)"
     id="g10823">
    <circle
       r="3.7500019"
       cy="4.9321041"
       cx="4.9320426"
       id="circle10819"
       style="opacity:1;fill:#90a959;fill-opacity:1;stroke-width:1.34929204;stroke-miterlimit:4;stroke-dasharray:none" />
    <circle
       r="2.0665779"
       cy="4.9321041"
       cx="4.9320426"
       id="circle10821"
       style="opacity:1;fill:#ffffff;fill-opacity:1;stroke:#ffffff;stroke-width:1.23929596;stroke-miterlimit:4;stroke-dasharray:none;stroke-opacity:1" />
  </g>
  <g
     id="g10829"
     transform="translate(4.2916667e-7,61.50004)">
    <circle
       style="opacity:1;fill:#90a959;fill-opacity:1;stroke-width:1.34929204;stroke-miterlimit:4;stroke-dasharray:none"
       id="circle10825"
       cx="4.9320426"
       cy="4.9321041"
       r="3.7500019" />
    <circle
       style="opacity:1;fill:#ffffff;fill-opacity:1;stroke:#ffffff;stroke-width:1.23929596;stroke-miterlimit:4;stroke-dasharray:none;stroke-opacity:1"
       id="circle10827"
       cx="4.9320426"
       cy="4.9321041"
       r="2.0665779" />
  </g>
</svg>
